<svg xmlns="http://www.w3.org/2000/svg" xmlns:xlink="http://www.w3.org/1999/xlink" width="500" zoomAndPan="magnify" viewBox="0 0 375 374.999991" height="500" preserveAspectRatio="xMidYMid meet" version="1.0"><defs><filter x="0%" y="0%" width="100%" height="100%" id="6ec02ff1ab"><feColorMatrix values="0 0 0 0 1 0 0 0 0 1 0 0 0 0 1 0 0 0 1 0" color-interpolation-filters="sRGB"/></filter><g/><mask id="c8b125d7c0"><g filter="url(#6ec02ff1ab)"><rect x="-37.5" width="450" fill="#000000" y="-37.499999" height="449.999989" fill-opacity="0.83"/></g></mask><clipPath id="45a469087b"><path d="M 61 0.738281 L 182 0.738281 L 182 87 L 61 87 Z M 61 0.738281 " clip-rule="nonzero"/></clipPath><clipPath id="3d6307ddca"><path d="M 69 91 L 190.359375 91 L 190.359375 190.488281 L 69 190.488281 Z M 69 91 " clip-rule="nonzero"/></clipPath><clipPath id="24a741a560"><path d="M 0.785156 52 L 122 52 L 122 152 L 0.785156 152 Z M 0.785156 52 " clip-rule="nonzero"/></clipPath><clipPath id="748094ef8d"><rect x="0" width="191" y="0" height="195"/></clipPath></defs><g mask="url(#c8b125d7c0)"><g transform="matrix(1, 0, 0, 1, 173, 55)"><g clip-path="url(#748094ef8d)"><g clip-path="url(#45a469087b)"><path fill="#e6e6dd" d="M 132.421875 86.859375 C 131.320312 86.867188 130.359375 86.511719 129.535156 85.78125 C 129.324219 85.59375 129.128906 85.386719 128.957031 85.160156 C 128.785156 84.933594 128.636719 84.691406 128.511719 84.433594 C 128.386719 84.179688 128.289062 83.914062 128.21875 83.636719 C 128.148438 83.363281 128.101562 83.082031 128.085938 82.796875 C 128.070312 82.511719 128.082031 82.230469 128.125 81.949219 C 128.164062 81.664062 128.230469 81.390625 128.324219 81.121094 C 128.421875 80.855469 128.539062 80.597656 128.6875 80.351562 C 128.832031 80.109375 129 79.878906 129.191406 79.667969 L 133.023438 75.363281 C 133.4375 74.90625 133.921875 74.554688 134.488281 74.304688 C 135.050781 74.058594 135.636719 73.9375 136.253906 73.941406 L 168.722656 73.941406 C 169.003906 73.941406 169.285156 73.914062 169.5625 73.859375 C 169.839844 73.804688 170.109375 73.722656 170.371094 73.613281 C 170.628906 73.503906 170.878906 73.371094 171.113281 73.214844 C 171.347656 73.058594 171.566406 72.878906 171.765625 72.679688 C 171.964844 72.480469 172.144531 72.261719 172.300781 72.027344 C 172.457031 71.792969 172.589844 71.542969 172.699219 71.28125 C 172.808594 71.023438 172.890625 70.753906 172.945312 70.476562 C 173 70.199219 173.027344 69.917969 173.027344 69.636719 L 173.027344 13.65625 C 173.027344 13.371094 173 13.09375 172.945312 12.816406 C 172.890625 12.539062 172.808594 12.269531 172.699219 12.007812 C 172.589844 11.746094 172.457031 11.5 172.300781 11.261719 C 172.144531 11.027344 171.964844 10.8125 171.765625 10.609375 C 171.566406 10.410156 171.347656 10.230469 171.113281 10.074219 C 170.878906 9.917969 170.628906 9.785156 170.371094 9.675781 C 170.109375 9.570312 169.839844 9.488281 169.5625 9.433594 C 169.285156 9.378906 169.003906 9.347656 168.722656 9.347656 L 73.988281 9.347656 C 73.703125 9.347656 73.425781 9.378906 73.148438 9.433594 C 72.871094 9.488281 72.601562 9.570312 72.339844 9.675781 C 72.078125 9.785156 71.828125 9.917969 71.59375 10.074219 C 71.359375 10.230469 71.140625 10.410156 70.941406 10.609375 C 70.742188 10.8125 70.5625 11.027344 70.40625 11.261719 C 70.25 11.5 70.117188 11.746094 70.007812 12.007812 C 69.902344 12.269531 69.820312 12.539062 69.765625 12.816406 C 69.707031 13.09375 69.679688 13.371094 69.679688 13.65625 L 69.679688 43.796875 C 69.679688 44.082031 69.652344 44.359375 69.597656 44.636719 C 69.542969 44.914062 69.460938 45.183594 69.351562 45.445312 C 69.246094 45.707031 69.113281 45.957031 68.957031 46.191406 C 68.796875 46.425781 68.621094 46.644531 68.417969 46.84375 C 68.21875 47.042969 68.003906 47.222656 67.765625 47.378906 C 67.53125 47.535156 67.285156 47.667969 67.023438 47.777344 C 66.761719 47.886719 66.492188 47.964844 66.214844 48.023438 C 65.9375 48.078125 65.65625 48.105469 65.375 48.105469 C 65.09375 48.105469 64.8125 48.078125 64.535156 48.023438 C 64.257812 47.964844 63.988281 47.886719 63.726562 47.777344 C 63.464844 47.667969 63.21875 47.535156 62.984375 47.378906 C 62.746094 47.222656 62.53125 47.042969 62.328125 46.84375 C 62.128906 46.644531 61.953125 46.425781 61.792969 46.191406 C 61.636719 45.957031 61.503906 45.707031 61.398438 45.445312 C 61.289062 45.183594 61.207031 44.914062 61.152344 44.636719 C 61.097656 44.359375 61.070312 44.082031 61.070312 43.796875 L 61.070312 13.65625 C 61.070312 12.808594 61.152344 11.96875 61.316406 11.136719 C 61.484375 10.304688 61.726562 9.496094 62.050781 8.710938 C 62.375 7.929688 62.773438 7.183594 63.246094 6.476562 C 63.71875 5.773438 64.253906 5.121094 64.851562 4.519531 C 65.453125 3.921875 66.105469 3.386719 66.808594 2.914062 C 67.515625 2.441406 68.257812 2.046875 69.042969 1.71875 C 69.828125 1.394531 70.636719 1.152344 71.46875 0.984375 C 72.296875 0.820312 73.140625 0.738281 73.988281 0.738281 L 168.722656 0.738281 C 169.570312 0.738281 170.410156 0.820312 171.242188 0.984375 C 172.074219 1.152344 172.882812 1.394531 173.664062 1.71875 C 174.449219 2.046875 175.191406 2.441406 175.898438 2.914062 C 176.605469 3.386719 177.257812 3.921875 177.855469 4.519531 C 178.457031 5.121094 178.992188 5.773438 179.460938 6.476562 C 179.933594 7.183594 180.332031 7.929688 180.65625 8.710938 C 180.980469 9.496094 181.226562 10.304688 181.390625 11.136719 C 181.558594 11.96875 181.640625 12.808594 181.640625 13.65625 L 181.640625 69.636719 C 181.640625 70.484375 181.558594 71.324219 181.390625 72.15625 C 181.226562 72.988281 180.980469 73.792969 180.65625 74.578125 C 180.332031 75.363281 179.933594 76.105469 179.460938 76.8125 C 178.992188 77.515625 178.457031 78.167969 177.855469 78.769531 C 177.257812 79.371094 176.605469 79.90625 175.898438 80.375 C 175.191406 80.847656 174.449219 81.246094 173.664062 81.570312 C 172.882812 81.894531 172.074219 82.140625 171.242188 82.304688 C 170.410156 82.46875 169.570312 82.554688 168.722656 82.554688 L 138.191406 82.554688 L 135.609375 85.4375 C 135.199219 85.890625 134.71875 86.238281 134.164062 86.484375 C 133.609375 86.734375 133.027344 86.859375 132.421875 86.859375 Z M 132.421875 86.859375 " fill-opacity="1" fill-rule="nonzero"/></g><g clip-path="url(#3d6307ddca)"><path fill="#e6e6dd" d="M 129.492188 190.207031 C 128.878906 190.210938 128.289062 190.089844 127.726562 189.839844 C 127.164062 189.59375 126.675781 189.242188 126.261719 188.785156 L 112.183594 172.980469 L 82.597656 172.980469 C 81.75 172.980469 80.910156 172.898438 80.078125 172.734375 C 79.246094 172.566406 78.4375 172.324219 77.65625 172 C 76.871094 171.671875 76.128906 171.277344 75.421875 170.804688 C 74.71875 170.332031 74.0625 169.796875 73.464844 169.199219 C 72.863281 168.597656 72.328125 167.945312 71.859375 167.238281 C 71.386719 166.535156 70.988281 165.789062 70.664062 165.007812 C 70.339844 164.222656 70.09375 163.414062 69.929688 162.582031 C 69.765625 161.75 69.679688 160.910156 69.679688 160.0625 L 69.679688 104.082031 C 69.679688 103.234375 69.765625 102.394531 69.929688 101.5625 C 70.09375 100.730469 70.339844 99.921875 70.664062 99.140625 C 70.988281 98.355469 71.386719 97.613281 71.859375 96.90625 C 72.328125 96.203125 72.863281 95.550781 73.464844 94.949219 C 74.0625 94.347656 74.71875 93.8125 75.421875 93.34375 C 76.128906 92.871094 76.871094 92.472656 77.65625 92.148438 C 78.4375 91.824219 79.246094 91.578125 80.078125 91.414062 C 80.910156 91.25 81.75 91.164062 82.597656 91.164062 L 177.332031 91.164062 C 178.183594 91.164062 179.023438 91.25 179.855469 91.414062 C 180.6875 91.578125 181.492188 91.824219 182.277344 92.148438 C 183.0625 92.472656 183.804688 92.871094 184.511719 93.34375 C 185.214844 93.8125 185.867188 94.347656 186.46875 94.949219 C 187.066406 95.550781 187.605469 96.203125 188.074219 96.90625 C 188.546875 97.613281 188.945312 98.355469 189.269531 99.140625 C 189.59375 99.921875 189.839844 100.730469 190.003906 101.5625 C 190.167969 102.394531 190.25 103.234375 190.253906 104.082031 L 190.253906 160.0625 C 190.25 160.910156 190.167969 161.75 190.003906 162.582031 C 189.839844 163.414062 189.59375 164.222656 189.269531 165.007812 C 188.945312 165.789062 188.546875 166.535156 188.074219 167.238281 C 187.605469 167.945312 187.066406 168.597656 186.46875 169.199219 C 185.867188 169.796875 185.214844 170.332031 184.511719 170.804688 C 183.804688 171.277344 183.0625 171.671875 182.277344 172 C 181.492188 172.324219 180.6875 172.566406 179.855469 172.734375 C 179.023438 172.898438 178.183594 172.980469 177.332031 172.980469 L 146.804688 172.980469 L 132.679688 188.785156 C 132.273438 189.234375 131.792969 189.585938 131.238281 189.832031 C 130.679688 190.078125 130.101562 190.203125 129.492188 190.207031 Z M 82.597656 99.777344 C 82.316406 99.777344 82.035156 99.804688 81.757812 99.859375 C 81.480469 99.914062 81.210938 99.996094 80.953125 100.105469 C 80.691406 100.214844 80.441406 100.347656 80.207031 100.503906 C 79.972656 100.660156 79.753906 100.839844 79.554688 101.039062 C 79.355469 101.238281 79.175781 101.457031 79.019531 101.691406 C 78.863281 101.925781 78.730469 102.175781 78.621094 102.4375 C 78.511719 102.695312 78.429688 102.964844 78.375 103.242188 C 78.320312 103.519531 78.292969 103.800781 78.292969 104.082031 L 78.292969 160.0625 C 78.292969 160.347656 78.320312 160.625 78.375 160.902344 C 78.429688 161.179688 78.511719 161.449219 78.621094 161.710938 C 78.730469 161.972656 78.863281 162.21875 79.019531 162.457031 C 79.175781 162.691406 79.355469 162.90625 79.554688 163.109375 C 79.753906 163.308594 79.972656 163.488281 80.207031 163.644531 C 80.441406 163.800781 80.691406 163.933594 80.953125 164.042969 C 81.210938 164.148438 81.480469 164.230469 81.757812 164.285156 C 82.035156 164.339844 82.316406 164.371094 82.597656 164.371094 L 114.078125 164.371094 C 114.691406 164.363281 115.28125 164.484375 115.84375 164.734375 C 116.40625 164.980469 116.894531 165.332031 117.304688 165.789062 L 129.492188 179.441406 L 141.636719 165.789062 C 142.046875 165.332031 142.535156 164.980469 143.097656 164.734375 C 143.660156 164.484375 144.25 164.363281 144.867188 164.371094 L 177.332031 164.371094 C 177.617188 164.371094 177.894531 164.339844 178.171875 164.285156 C 178.449219 164.230469 178.71875 164.148438 178.980469 164.042969 C 179.242188 163.933594 179.492188 163.800781 179.726562 163.644531 C 179.960938 163.488281 180.179688 163.308594 180.378906 163.109375 C 180.578125 162.90625 180.757812 162.691406 180.914062 162.457031 C 181.070312 162.21875 181.203125 161.972656 181.3125 161.710938 C 181.421875 161.449219 181.5 161.179688 181.558594 160.902344 C 181.613281 160.625 181.640625 160.347656 181.640625 160.0625 L 181.640625 104.082031 C 181.640625 103.800781 181.613281 103.519531 181.558594 103.242188 C 181.5 102.964844 181.421875 102.695312 181.3125 102.4375 C 181.203125 102.175781 181.070312 101.925781 180.914062 101.691406 C 180.757812 101.457031 180.578125 101.238281 180.378906 101.039062 C 180.179688 100.839844 179.960938 100.660156 179.726562 100.503906 C 179.492188 100.347656 179.242188 100.214844 178.980469 100.105469 C 178.71875 99.996094 178.449219 99.914062 178.171875 99.859375 C 177.894531 99.804688 177.617188 99.777344 177.332031 99.777344 Z M 82.597656 99.777344 " fill-opacity="1" fill-rule="nonzero"/></g><path fill="#e6e6dd" d="M 129.964844 164.371094 C 128.980469 164.371094 127.996094 164.320312 127.011719 164.222656 C 126.03125 164.128906 125.054688 163.984375 124.085938 163.789062 C 123.117188 163.597656 122.160156 163.359375 121.214844 163.070312 C 120.273438 162.785156 119.34375 162.453125 118.429688 162.074219 C 117.519531 161.695312 116.628906 161.277344 115.757812 160.808594 C 114.886719 160.34375 114.039062 159.835938 113.21875 159.289062 C 112.398438 158.742188 111.605469 158.152344 110.84375 157.527344 C 110.082031 156.902344 109.351562 156.238281 108.652344 155.539062 C 107.953125 154.84375 107.292969 154.113281 106.664062 153.347656 C 106.039062 152.585938 105.453125 151.792969 104.902344 150.972656 C 104.355469 150.152344 103.847656 149.304688 103.382812 148.4375 C 102.917969 147.566406 102.496094 146.671875 102.117188 145.761719 C 101.742188 144.847656 101.40625 143.921875 101.121094 142.976562 C 100.835938 142.03125 100.59375 141.074219 100.402344 140.105469 C 100.210938 139.140625 100.066406 138.164062 99.96875 137.179688 C 99.871094 136.199219 99.824219 135.214844 99.824219 134.226562 C 99.824219 133.238281 99.871094 132.253906 99.96875 131.273438 C 100.066406 130.289062 100.210938 129.3125 100.402344 128.347656 C 100.59375 127.378906 100.835938 126.421875 101.121094 125.476562 C 101.40625 124.53125 101.742188 123.601562 102.117188 122.691406 C 102.496094 121.78125 102.917969 120.886719 103.382812 120.015625 C 103.847656 119.148438 104.355469 118.300781 104.902344 117.480469 C 105.453125 116.660156 106.039062 115.867188 106.664062 115.105469 C 107.292969 114.339844 107.953125 113.609375 108.652344 112.914062 C 109.351562 112.214844 110.082031 111.550781 110.84375 110.925781 C 111.605469 110.300781 112.398438 109.710938 113.21875 109.164062 C 114.039062 108.617188 114.886719 108.109375 115.757812 107.644531 C 116.628906 107.175781 117.519531 106.757812 118.429688 106.378906 C 119.34375 106 120.273438 105.667969 121.214844 105.382812 C 122.160156 105.09375 123.117188 104.855469 124.085938 104.664062 C 125.054688 104.46875 126.03125 104.324219 127.011719 104.230469 C 127.996094 104.132812 128.980469 104.082031 129.964844 104.082031 C 130.953125 104.082031 131.9375 104.132812 132.921875 104.230469 C 133.902344 104.324219 134.878906 104.46875 135.847656 104.664062 C 136.816406 104.855469 137.773438 105.09375 138.714844 105.382812 C 139.660156 105.667969 140.589844 106 141.5 106.378906 C 142.414062 106.757812 143.304688 107.175781 144.175781 107.644531 C 145.046875 108.109375 145.890625 108.617188 146.710938 109.164062 C 147.535156 109.710938 148.324219 110.300781 149.089844 110.925781 C 149.851562 111.550781 150.582031 112.214844 151.28125 112.914062 C 151.980469 113.609375 152.640625 114.339844 153.265625 115.105469 C 153.894531 115.867188 154.480469 116.660156 155.027344 117.480469 C 155.578125 118.300781 156.085938 119.148438 156.550781 120.015625 C 157.015625 120.886719 157.4375 121.78125 157.816406 122.691406 C 158.191406 123.601562 158.523438 124.53125 158.8125 125.476562 C 159.097656 126.421875 159.335938 127.378906 159.53125 128.347656 C 159.722656 129.3125 159.867188 130.289062 159.964844 131.273438 C 160.0625 132.253906 160.109375 133.238281 160.109375 134.226562 C 160.109375 135.214844 160.0625 136.199219 159.964844 137.179688 C 159.867188 138.164062 159.722656 139.140625 159.53125 140.105469 C 159.335938 141.074219 159.097656 142.03125 158.8125 142.976562 C 158.523438 143.921875 158.191406 144.847656 157.816406 145.761719 C 157.4375 146.671875 157.015625 147.566406 156.550781 148.4375 C 156.085938 149.304688 155.578125 150.152344 155.027344 150.972656 C 154.480469 151.792969 153.894531 152.585938 153.265625 153.347656 C 152.640625 154.113281 151.980469 154.84375 151.28125 155.539062 C 150.582031 156.238281 149.851562 156.902344 149.089844 157.527344 C 148.324219 158.152344 147.535156 158.742188 146.710938 159.289062 C 145.890625 159.835938 145.046875 160.34375 144.175781 160.808594 C 143.304688 161.277344 142.414062 161.695312 141.5 162.074219 C 140.589844 162.453125 139.660156 162.785156 138.714844 163.070312 C 137.773438 163.359375 136.816406 163.597656 135.847656 163.789062 C 134.878906 163.984375 133.902344 164.128906 132.921875 164.222656 C 131.9375 164.320312 130.953125 164.371094 129.964844 164.371094 Z M 129.964844 112.695312 C 129.261719 112.695312 128.558594 112.730469 127.855469 112.800781 C 127.15625 112.867188 126.457031 112.972656 125.765625 113.109375 C 125.074219 113.246094 124.390625 113.417969 123.714844 113.625 C 123.042969 113.828125 122.378906 114.066406 121.726562 114.335938 C 121.074219 114.605469 120.4375 114.90625 119.816406 115.238281 C 119.195312 115.570312 118.589844 115.933594 118.003906 116.324219 C 117.417969 116.714844 116.851562 117.136719 116.308594 117.582031 C 115.761719 118.03125 115.242188 118.503906 114.742188 119.003906 C 114.242188 119.5 113.769531 120.023438 113.324219 120.566406 C 112.875 121.113281 112.457031 121.679688 112.0625 122.265625 C 111.671875 122.851562 111.3125 123.457031 110.976562 124.078125 C 110.644531 124.699219 110.34375 125.335938 110.074219 125.988281 C 109.804688 126.636719 109.566406 127.300781 109.363281 127.976562 C 109.160156 128.652344 108.988281 129.335938 108.847656 130.027344 C 108.710938 130.71875 108.609375 131.414062 108.539062 132.117188 C 108.46875 132.816406 108.4375 133.519531 108.4375 134.226562 C 108.4375 134.933594 108.46875 135.636719 108.539062 136.335938 C 108.609375 137.039062 108.710938 137.734375 108.847656 138.425781 C 108.988281 139.117188 109.160156 139.800781 109.363281 140.476562 C 109.566406 141.152344 109.804688 141.8125 110.074219 142.464844 C 110.34375 143.117188 110.644531 143.753906 110.976562 144.375 C 111.3125 144.996094 111.671875 145.601562 112.0625 146.1875 C 112.457031 146.773438 112.875 147.339844 113.324219 147.886719 C 113.769531 148.429688 114.242188 148.953125 114.742188 149.449219 C 115.242188 149.949219 115.761719 150.421875 116.308594 150.871094 C 116.851562 151.316406 117.417969 151.738281 118.003906 152.128906 C 118.589844 152.519531 119.195312 152.882812 119.816406 153.214844 C 120.4375 153.546875 121.074219 153.847656 121.726562 154.117188 C 122.378906 154.386719 123.042969 154.625 123.714844 154.828125 C 124.390625 155.035156 125.074219 155.207031 125.765625 155.34375 C 126.457031 155.480469 127.15625 155.585938 127.855469 155.652344 C 128.558594 155.722656 129.261719 155.757812 129.964844 155.757812 C 130.671875 155.757812 131.375 155.722656 132.078125 155.652344 C 132.777344 155.585938 133.476562 155.480469 134.167969 155.34375 C 134.859375 155.207031 135.542969 155.035156 136.214844 154.828125 C 136.890625 154.625 137.554688 154.386719 138.207031 154.117188 C 138.855469 153.847656 139.492188 153.546875 140.117188 153.214844 C 140.738281 152.882812 141.34375 152.519531 141.929688 152.128906 C 142.515625 151.738281 143.082031 151.316406 143.625 150.871094 C 144.171875 150.421875 144.691406 149.949219 145.191406 149.449219 C 145.691406 148.953125 146.164062 148.429688 146.609375 147.886719 C 147.058594 147.339844 147.476562 146.773438 147.867188 146.1875 C 148.261719 145.601562 148.621094 144.996094 148.953125 144.375 C 149.285156 143.753906 149.589844 143.117188 149.859375 142.464844 C 150.128906 141.8125 150.363281 141.152344 150.570312 140.476562 C 150.773438 139.800781 150.945312 139.117188 151.082031 138.425781 C 151.222656 137.734375 151.324219 137.039062 151.394531 136.335938 C 151.460938 135.636719 151.496094 134.933594 151.496094 134.226562 C 151.496094 133.519531 151.460938 132.816406 151.394531 132.117188 C 151.324219 131.414062 151.222656 130.71875 151.082031 130.027344 C 150.945312 129.335938 150.773438 128.652344 150.570312 127.976562 C 150.363281 127.300781 150.128906 126.636719 149.859375 125.988281 C 149.589844 125.335938 149.285156 124.699219 148.953125 124.078125 C 148.621094 123.457031 148.261719 122.851562 147.867188 122.265625 C 147.476562 121.679688 147.058594 121.113281 146.609375 120.566406 C 146.164062 120.023438 145.691406 119.5 145.191406 119.003906 C 144.691406 118.503906 144.171875 118.03125 143.625 117.582031 C 143.082031 117.136719 142.515625 116.714844 141.929688 116.324219 C 141.34375 115.933594 140.738281 115.570312 140.117188 115.238281 C 139.492188 114.90625 138.855469 114.605469 138.207031 114.335938 C 137.554688 114.066406 136.890625 113.828125 136.214844 113.625 C 135.542969 113.417969 134.859375 113.246094 134.167969 113.109375 C 133.476562 112.972656 132.777344 112.867188 132.078125 112.800781 C 131.375 112.730469 130.671875 112.695312 129.964844 112.695312 Z M 129.964844 112.695312 " fill-opacity="1" fill-rule="nonzero"/><path fill="#e6e6dd" d="M 129.964844 149.296875 C 129.117188 149.296875 128.277344 149.214844 127.445312 149.050781 C 126.613281 148.882812 125.804688 148.640625 125.023438 148.316406 C 124.238281 147.988281 123.496094 147.59375 122.789062 147.121094 C 122.085938 146.648438 121.429688 146.113281 120.832031 145.515625 C 120.230469 144.914062 119.695312 144.261719 119.226562 143.554688 C 118.753906 142.851562 118.355469 142.105469 118.03125 141.324219 C 117.707031 140.539062 117.460938 139.730469 117.296875 138.898438 C 117.132812 138.066406 117.046875 137.226562 117.046875 136.378906 C 117.046875 136.097656 117.074219 135.816406 117.132812 135.539062 C 117.1875 135.261719 117.269531 134.992188 117.375 134.730469 C 117.484375 134.46875 117.617188 134.222656 117.773438 133.988281 C 117.929688 133.753906 118.109375 133.535156 118.308594 133.335938 C 118.507812 133.136719 118.726562 132.957031 118.960938 132.800781 C 119.195312 132.640625 119.445312 132.507812 119.707031 132.402344 C 119.96875 132.292969 120.238281 132.210938 120.515625 132.15625 C 120.792969 132.101562 121.070312 132.074219 121.355469 132.074219 C 121.636719 132.074219 121.917969 132.101562 122.195312 132.15625 C 122.472656 132.210938 122.742188 132.292969 123.003906 132.402344 C 123.261719 132.507812 123.511719 132.640625 123.746094 132.800781 C 123.980469 132.957031 124.199219 133.136719 124.398438 133.335938 C 124.597656 133.535156 124.777344 133.753906 124.933594 133.988281 C 125.089844 134.222656 125.222656 134.46875 125.332031 134.730469 C 125.441406 134.992188 125.523438 135.261719 125.578125 135.539062 C 125.632812 135.816406 125.660156 136.097656 125.660156 136.378906 C 125.660156 136.664062 125.6875 136.941406 125.742188 137.21875 C 125.796875 137.496094 125.878906 137.765625 125.988281 138.027344 C 126.097656 138.289062 126.230469 138.535156 126.386719 138.773438 C 126.542969 139.007812 126.722656 139.222656 126.921875 139.425781 C 127.121094 139.625 127.339844 139.804688 127.574219 139.960938 C 127.808594 140.117188 128.058594 140.25 128.320312 140.359375 C 128.578125 140.464844 128.847656 140.546875 129.125 140.601562 C 129.402344 140.65625 129.683594 140.6875 129.964844 140.6875 C 130.25 140.6875 130.527344 140.65625 130.804688 140.601562 C 131.082031 140.546875 131.351562 140.464844 131.613281 140.359375 C 131.875 140.25 132.125 140.117188 132.359375 139.960938 C 132.59375 139.804688 132.8125 139.625 133.011719 139.425781 C 133.210938 139.222656 133.390625 139.007812 133.546875 138.773438 C 133.703125 138.535156 133.835938 138.289062 133.945312 138.027344 C 134.054688 137.765625 134.132812 137.496094 134.191406 137.21875 C 134.246094 136.941406 134.273438 136.664062 134.273438 136.378906 C 134.273438 136.097656 134.300781 135.816406 134.355469 135.539062 C 134.410156 135.261719 134.492188 134.992188 134.601562 134.730469 C 134.707031 134.46875 134.839844 134.222656 135 133.988281 C 135.15625 133.753906 135.332031 133.535156 135.535156 133.335938 C 135.734375 133.136719 135.953125 132.957031 136.1875 132.800781 C 136.421875 132.640625 136.667969 132.507812 136.929688 132.402344 C 137.191406 132.292969 137.460938 132.210938 137.738281 132.15625 C 138.015625 132.101562 138.296875 132.074219 138.578125 132.074219 C 138.863281 132.074219 139.140625 132.101562 139.417969 132.15625 C 139.695312 132.210938 139.964844 132.292969 140.226562 132.402344 C 140.488281 132.507812 140.734375 132.640625 140.972656 132.800781 C 141.207031 132.957031 141.421875 133.136719 141.625 133.335938 C 141.824219 133.535156 142.003906 133.753906 142.160156 133.988281 C 142.316406 134.222656 142.449219 134.46875 142.558594 134.730469 C 142.664062 134.992188 142.746094 135.261719 142.800781 135.539062 C 142.855469 135.816406 142.886719 136.097656 142.886719 136.378906 C 142.886719 137.226562 142.800781 138.066406 142.636719 138.898438 C 142.472656 139.730469 142.226562 140.539062 141.902344 141.324219 C 141.578125 142.105469 141.179688 142.851562 140.707031 143.554688 C 140.238281 144.261719 139.699219 144.914062 139.101562 145.515625 C 138.5 146.113281 137.847656 146.648438 137.144531 147.121094 C 136.4375 147.59375 135.695312 147.988281 134.910156 148.316406 C 134.125 148.640625 133.320312 148.882812 132.488281 149.050781 C 131.65625 149.214844 130.816406 149.296875 129.964844 149.296875 Z M 129.964844 149.296875 " fill-opacity="1" fill-rule="nonzero"/><g clip-path="url(#24a741a560)"><path fill="#e6e6dd" d="M 60.59375 151.449219 C 59.988281 151.449219 59.40625 151.324219 58.851562 151.078125 C 58.296875 150.832031 57.816406 150.480469 57.410156 150.03125 L 43.242188 134.226562 L 13.703125 134.226562 C 12.851562 134.226562 12.011719 134.144531 11.179688 133.976562 C 10.347656 133.8125 9.542969 133.566406 8.757812 133.242188 C 7.972656 132.917969 7.230469 132.519531 6.523438 132.050781 C 5.820312 131.578125 5.167969 131.042969 4.566406 130.441406 C 3.96875 129.84375 3.429688 129.191406 2.960938 128.484375 C 2.488281 127.78125 2.089844 127.035156 1.765625 126.25 C 1.441406 125.46875 1.195312 124.660156 1.03125 123.828125 C 0.867188 122.996094 0.785156 122.15625 0.785156 121.308594 L 0.785156 65.328125 C 0.785156 64.480469 0.867188 63.640625 1.03125 62.808594 C 1.195312 61.976562 1.441406 61.167969 1.765625 60.386719 C 2.089844 59.601562 2.488281 58.855469 2.960938 58.152344 C 3.429688 57.445312 3.96875 56.792969 4.566406 56.195312 C 5.167969 55.59375 5.820312 55.058594 6.523438 54.585938 C 7.230469 54.117188 7.972656 53.71875 8.757812 53.394531 C 9.542969 53.070312 10.347656 52.824219 11.179688 52.660156 C 12.011719 52.492188 12.851562 52.410156 13.703125 52.410156 L 108.4375 52.410156 C 109.285156 52.410156 110.125 52.492188 110.957031 52.660156 C 111.789062 52.824219 112.597656 53.070312 113.378906 53.394531 C 114.164062 53.71875 114.90625 54.117188 115.613281 54.585938 C 116.316406 55.058594 116.972656 55.59375 117.570312 56.195312 C 118.171875 56.792969 118.707031 57.445312 119.175781 58.152344 C 119.648438 58.855469 120.046875 59.601562 120.371094 60.386719 C 120.695312 61.167969 120.941406 61.976562 121.105469 62.808594 C 121.273438 63.640625 121.355469 64.480469 121.355469 65.328125 L 121.355469 82.554688 C 121.355469 82.835938 121.328125 83.117188 121.273438 83.394531 C 121.214844 83.671875 121.132812 83.941406 121.027344 84.199219 C 120.917969 84.460938 120.785156 84.710938 120.628906 84.945312 C 120.472656 85.179688 120.292969 85.398438 120.09375 85.597656 C 119.894531 85.796875 119.675781 85.976562 119.441406 86.132812 C 119.207031 86.289062 118.957031 86.421875 118.695312 86.53125 C 118.433594 86.640625 118.164062 86.722656 117.886719 86.777344 C 117.609375 86.832031 117.332031 86.859375 117.046875 86.859375 C 116.765625 86.859375 116.484375 86.832031 116.207031 86.777344 C 115.929688 86.722656 115.660156 86.640625 115.398438 86.53125 C 115.140625 86.421875 114.890625 86.289062 114.65625 86.132812 C 114.421875 85.976562 114.203125 85.796875 114.003906 85.597656 C 113.804688 85.398438 113.625 85.179688 113.46875 84.945312 C 113.3125 84.710938 113.179688 84.460938 113.070312 84.199219 C 112.960938 83.941406 112.878906 83.671875 112.824219 83.394531 C 112.769531 83.117188 112.742188 82.835938 112.742188 82.554688 L 112.742188 65.328125 C 112.742188 65.046875 112.714844 64.765625 112.660156 64.488281 C 112.605469 64.210938 112.523438 63.941406 112.414062 63.679688 C 112.304688 63.417969 112.171875 63.171875 112.015625 62.9375 C 111.859375 62.703125 111.679688 62.484375 111.480469 62.285156 C 111.28125 62.085938 111.0625 61.90625 110.828125 61.75 C 110.59375 61.589844 110.34375 61.457031 110.082031 61.351562 C 109.824219 61.242188 109.554688 61.160156 109.277344 61.105469 C 109 61.050781 108.71875 61.023438 108.4375 61.023438 L 13.703125 61.023438 C 13.417969 61.023438 13.140625 61.050781 12.863281 61.105469 C 12.585938 61.160156 12.316406 61.242188 12.054688 61.351562 C 11.792969 61.457031 11.542969 61.589844 11.308594 61.75 C 11.074219 61.90625 10.855469 62.085938 10.65625 62.285156 C 10.457031 62.484375 10.277344 62.703125 10.121094 62.9375 C 9.964844 63.171875 9.832031 63.417969 9.722656 63.679688 C 9.613281 63.941406 9.535156 64.210938 9.476562 64.488281 C 9.421875 64.765625 9.394531 65.046875 9.394531 65.328125 L 9.394531 121.308594 C 9.394531 121.589844 9.421875 121.871094 9.476562 122.148438 C 9.535156 122.425781 9.613281 122.695312 9.722656 122.957031 C 9.832031 123.21875 9.964844 123.464844 10.121094 123.699219 C 10.277344 123.9375 10.457031 124.152344 10.65625 124.351562 C 10.855469 124.554688 11.074219 124.730469 11.308594 124.886719 C 11.542969 125.046875 11.792969 125.179688 12.054688 125.285156 C 12.316406 125.394531 12.585938 125.476562 12.863281 125.53125 C 13.140625 125.585938 13.417969 125.613281 13.703125 125.613281 L 45.179688 125.613281 C 45.792969 125.609375 46.382812 125.730469 46.945312 125.980469 C 47.507812 126.226562 47.996094 126.578125 48.410156 127.035156 L 63.824219 144.261719 C 64.015625 144.472656 64.183594 144.699219 64.328125 144.945312 C 64.476562 145.1875 64.59375 145.445312 64.691406 145.714844 C 64.785156 145.980469 64.851562 146.257812 64.894531 146.539062 C 64.933594 146.820312 64.945312 147.105469 64.929688 147.390625 C 64.914062 147.671875 64.871094 147.953125 64.796875 148.230469 C 64.726562 148.503906 64.628906 148.769531 64.503906 149.027344 C 64.378906 149.28125 64.230469 149.523438 64.058594 149.75 C 63.886719 149.976562 63.695312 150.1875 63.480469 150.375 C 62.65625 151.101562 61.695312 151.460938 60.59375 151.449219 Z M 60.59375 151.449219 " fill-opacity="1" fill-rule="nonzero"/></g><path fill="#e6e6dd" d="M 142.886719 26.574219 L 86.90625 26.574219 C 86.621094 26.574219 86.34375 26.546875 86.066406 26.492188 C 85.789062 26.4375 85.519531 26.355469 85.257812 26.246094 C 84.996094 26.136719 84.75 26.003906 84.511719 25.847656 C 84.277344 25.691406 84.058594 25.511719 83.859375 25.3125 C 83.660156 25.113281 83.480469 24.894531 83.324219 24.660156 C 83.167969 24.425781 83.035156 24.175781 82.925781 23.914062 C 82.820312 23.65625 82.738281 23.386719 82.683594 23.109375 C 82.625 22.832031 82.597656 22.550781 82.597656 22.269531 C 82.597656 21.984375 82.625 21.703125 82.683594 21.425781 C 82.738281 21.148438 82.820312 20.882812 82.925781 20.621094 C 83.035156 20.359375 83.167969 20.109375 83.324219 19.875 C 83.480469 19.640625 83.660156 19.421875 83.859375 19.222656 C 84.058594 19.023438 84.277344 18.84375 84.511719 18.6875 C 84.75 18.53125 84.996094 18.398438 85.257812 18.289062 C 85.519531 18.179688 85.789062 18.097656 86.066406 18.042969 C 86.34375 17.988281 86.621094 17.960938 86.90625 17.960938 L 142.886719 17.960938 C 143.167969 17.960938 143.449219 17.988281 143.726562 18.042969 C 144.003906 18.097656 144.269531 18.179688 144.53125 18.289062 C 144.792969 18.398438 145.042969 18.53125 145.277344 18.6875 C 145.511719 18.84375 145.730469 19.023438 145.929688 19.222656 C 146.128906 19.421875 146.308594 19.640625 146.464844 19.875 C 146.621094 20.109375 146.753906 20.359375 146.863281 20.621094 C 146.972656 20.882812 147.054688 21.148438 147.109375 21.425781 C 147.164062 21.703125 147.191406 21.984375 147.191406 22.269531 C 147.191406 22.550781 147.164062 22.832031 147.109375 23.109375 C 147.054688 23.386719 146.972656 23.65625 146.863281 23.914062 C 146.753906 24.175781 146.621094 24.425781 146.464844 24.660156 C 146.308594 24.894531 146.128906 25.113281 145.929688 25.3125 C 145.730469 25.511719 145.511719 25.691406 145.277344 25.847656 C 145.042969 26.003906 144.792969 26.136719 144.53125 26.246094 C 144.269531 26.355469 144.003906 26.4375 143.726562 26.492188 C 143.449219 26.546875 143.167969 26.574219 142.886719 26.574219 Z M 142.886719 26.574219 " fill-opacity="1" fill-rule="nonzero"/><path fill="#e6e6dd" d="M 121.355469 43.796875 L 86.90625 43.796875 C 86.621094 43.796875 86.34375 43.769531 86.066406 43.714844 C 85.789062 43.660156 85.519531 43.578125 85.257812 43.46875 C 84.996094 43.363281 84.75 43.230469 84.511719 43.074219 C 84.277344 42.914062 84.058594 42.738281 83.859375 42.535156 C 83.660156 42.335938 83.480469 42.121094 83.324219 41.882812 C 83.167969 41.648438 83.035156 41.402344 82.925781 41.140625 C 82.820312 40.878906 82.738281 40.609375 82.683594 40.332031 C 82.625 40.054688 82.597656 39.773438 82.597656 39.492188 C 82.597656 39.210938 82.625 38.929688 82.683594 38.652344 C 82.738281 38.375 82.820312 38.105469 82.925781 37.84375 C 83.035156 37.582031 83.167969 37.335938 83.324219 37.101562 C 83.480469 36.863281 83.660156 36.648438 83.859375 36.449219 C 84.058594 36.246094 84.277344 36.070312 84.511719 35.910156 C 84.75 35.753906 84.996094 35.621094 85.257812 35.515625 C 85.519531 35.40625 85.789062 35.324219 86.066406 35.269531 C 86.34375 35.214844 86.621094 35.1875 86.90625 35.1875 L 121.355469 35.1875 C 121.636719 35.1875 121.917969 35.214844 122.195312 35.269531 C 122.472656 35.324219 122.742188 35.40625 123.003906 35.515625 C 123.261719 35.621094 123.511719 35.753906 123.746094 35.910156 C 123.980469 36.070312 124.199219 36.246094 124.398438 36.449219 C 124.597656 36.648438 124.777344 36.863281 124.933594 37.101562 C 125.089844 37.335938 125.222656 37.582031 125.332031 37.84375 C 125.441406 38.105469 125.523438 38.375 125.578125 38.652344 C 125.632812 38.929688 125.660156 39.210938 125.660156 39.492188 C 125.660156 39.773438 125.632812 40.054688 125.578125 40.332031 C 125.523438 40.609375 125.441406 40.878906 125.332031 41.140625 C 125.222656 41.402344 125.089844 41.648438 124.933594 41.882812 C 124.777344 42.121094 124.597656 42.335938 124.398438 42.535156 C 124.199219 42.738281 123.980469 42.914062 123.746094 43.074219 C 123.511719 43.230469 123.261719 43.363281 123.003906 43.46875 C 122.742188 43.578125 122.472656 43.660156 122.195312 43.714844 C 121.917969 43.769531 121.636719 43.796875 121.355469 43.796875 Z M 121.355469 43.796875 " fill-opacity="1" fill-rule="nonzero"/><path fill="#e6e6dd" d="M 61.070312 124.238281 C 59.875 124.242188 58.859375 123.828125 58.011719 122.988281 L 39.925781 104.945312 C 28.558594 93.578125 29.675781 82.121094 35.621094 76.308594 C 41.5625 70.496094 50.734375 69.636719 61.070312 77.988281 C 62.292969 76.871094 63.621094 75.902344 65.058594 75.078125 C 66.496094 74.253906 68.003906 73.597656 69.585938 73.105469 C 71.167969 72.617188 72.78125 72.304688 74.433594 72.167969 C 76.082031 72.03125 77.730469 72.078125 79.371094 72.304688 C 80.527344 72.535156 81.640625 72.902344 82.707031 73.40625 C 83.773438 73.910156 84.761719 74.539062 85.667969 75.292969 C 86.578125 76.042969 87.382812 76.894531 88.082031 77.847656 C 88.777344 78.800781 89.347656 79.824219 89.789062 80.917969 C 89.894531 81.179688 89.972656 81.449219 90.023438 81.730469 C 90.078125 82.007812 90.101562 82.289062 90.097656 82.570312 C 90.09375 82.855469 90.0625 83.132812 90.003906 83.410156 C 89.941406 83.6875 89.859375 83.957031 89.746094 84.214844 C 89.632812 84.476562 89.496094 84.722656 89.335938 84.957031 C 89.175781 85.1875 88.996094 85.402344 88.792969 85.601562 C 88.589844 85.796875 88.367188 85.972656 88.128906 86.128906 C 87.890625 86.28125 87.640625 86.410156 87.378906 86.515625 C 87.117188 86.621094 86.84375 86.699219 86.566406 86.75 C 86.289062 86.800781 86.007812 86.824219 85.726562 86.820312 C 85.441406 86.816406 85.160156 86.785156 84.886719 86.726562 C 84.609375 86.667969 84.339844 86.582031 84.078125 86.46875 C 83.820312 86.359375 83.574219 86.222656 83.339844 86.0625 C 83.105469 85.902344 82.890625 85.71875 82.695312 85.515625 C 82.496094 85.3125 82.320312 85.09375 82.167969 84.855469 C 82.015625 84.617188 81.886719 84.367188 81.78125 84.101562 C 81.417969 83.195312 80.851562 82.4375 80.082031 81.828125 C 79.3125 81.222656 78.445312 80.84375 77.476562 80.703125 C 76.195312 80.660156 74.929688 80.765625 73.675781 81.019531 C 72.421875 81.273438 71.214844 81.667969 70.054688 82.199219 C 68.890625 82.734375 67.804688 83.394531 66.796875 84.183594 C 65.789062 84.96875 64.882812 85.863281 64.082031 86.859375 C 63.882812 87.0625 63.664062 87.242188 63.429688 87.398438 C 63.191406 87.558594 62.945312 87.691406 62.683594 87.800781 C 62.417969 87.910156 62.148438 87.992188 61.871094 88.050781 C 61.589844 88.105469 61.308594 88.132812 61.027344 88.132812 C 60.742188 88.132812 60.460938 88.105469 60.179688 88.050781 C 59.902344 87.992188 59.632812 87.910156 59.371094 87.800781 C 59.105469 87.691406 58.859375 87.558594 58.621094 87.398438 C 58.386719 87.242188 58.167969 87.0625 57.96875 86.859375 C 51.121094 80.011719 44.535156 79.453125 41.5625 82.554688 C 38.589844 85.652344 39.152344 92.113281 45.867188 98.960938 L 64.082031 117.003906 C 64.285156 117.203125 64.464844 117.421875 64.625 117.65625 C 64.78125 117.890625 64.917969 118.140625 65.027344 118.402344 C 65.136719 118.664062 65.21875 118.9375 65.273438 119.214844 C 65.328125 119.492188 65.355469 119.773438 65.355469 120.058594 C 65.355469 120.34375 65.328125 120.625 65.273438 120.902344 C 65.21875 121.183594 65.136719 121.453125 65.027344 121.714844 C 64.917969 121.976562 64.78125 122.226562 64.625 122.460938 C 64.464844 122.699219 64.285156 122.917969 64.082031 123.117188 C 63.226562 123.894531 62.222656 124.265625 61.070312 124.238281 Z M 61.070312 124.238281 " fill-opacity="1" fill-rule="nonzero"/></g></g></g><g fill="#219f2e" fill-opacity="1"><g transform="translate(61.266224, 269.66072)"><g><path d="M 89.8125 -68.578125 C 97.144531 -60.535156 100.8125 -50.707031 100.8125 -39.09375 C 100.8125 -27.488281 97.144531 -17.6875 89.8125 -9.6875 C 82.476562 -1.695312 73.160156 2.296875 61.859375 2.296875 C 51.472656 2.296875 42.921875 -1.421875 36.203125 -8.859375 L 35.890625 -8.859375 L 35.890625 0 L 9.171875 0 L 9.171875 -131.359375 L 36.203125 -131.359375 L 36.203125 -70.875 C 42.921875 -77.394531 51.472656 -80.65625 61.859375 -80.65625 C 73.160156 -80.65625 82.476562 -76.628906 89.8125 -68.578125 Z M 67.046875 -25.890625 C 70.410156 -29.304688 72.09375 -33.710938 72.09375 -39.109375 C 72.09375 -44.503906 70.335938 -48.929688 66.828125 -52.390625 C 63.316406 -55.859375 58.960938 -57.59375 53.765625 -57.59375 C 48.671875 -57.59375 44.367188 -55.859375 40.859375 -52.390625 C 37.347656 -48.929688 35.59375 -44.503906 35.59375 -39.109375 C 35.59375 -33.804688 37.296875 -29.425781 40.703125 -25.96875 C 44.117188 -22.507812 48.472656 -20.78125 53.765625 -20.78125 C 59.265625 -20.78125 63.691406 -22.484375 67.046875 -25.890625 Z M 67.046875 -25.890625 "/></g></g></g><g fill="#219f2e" fill-opacity="1"><g transform="translate(151.21669, 269.66072)"><g><path d="M 88.4375 -35.4375 L 31.625 -35.4375 C 31.625 -29.9375 33.40625 -25.863281 36.96875 -23.21875 C 40.53125 -20.570312 44.398438 -19.25 48.578125 -19.25 C 52.953125 -19.25 56.410156 -19.832031 58.953125 -21 C 61.503906 -22.175781 64.410156 -24.492188 67.671875 -27.953125 L 87.21875 -18.171875 C 79.070312 -4.523438 65.53125 2.296875 46.59375 2.296875 C 34.78125 2.296875 24.644531 -1.75 16.1875 -9.84375 C 7.738281 -17.945312 3.515625 -27.703125 3.515625 -39.109375 C 3.515625 -50.515625 7.738281 -60.289062 16.1875 -68.4375 C 24.644531 -76.582031 34.78125 -80.65625 46.59375 -80.65625 C 59.007812 -80.65625 69.113281 -77.0625 76.90625 -69.875 C 84.695312 -62.695312 88.59375 -52.441406 88.59375 -39.109375 C 88.59375 -37.273438 88.539062 -36.050781 88.4375 -35.4375 Z M 32.390625 -50.40625 L 62.171875 -50.40625 C 61.554688 -54.476562 59.953125 -57.609375 57.359375 -59.796875 C 54.765625 -61.984375 51.429688 -63.078125 47.359375 -63.078125 C 42.867188 -63.078125 39.300781 -61.90625 36.65625 -59.5625 C 34.007812 -57.226562 32.585938 -54.175781 32.390625 -50.40625 Z M 32.390625 -50.40625 "/></g></g></g><g fill="#219f2e" fill-opacity="1"><g transform="translate(228.949198, 269.66072)"><g><path d="M 13.75 -78.359375 L 13.75 -95.015625 C 13.851562 -106.722656 16.601562 -116.085938 22 -123.109375 C 27.394531 -130.140625 34.878906 -133.65625 44.453125 -133.65625 C 48.523438 -133.65625 52.421875 -133.066406 56.140625 -131.890625 C 59.859375 -130.722656 62.53125 -129.53125 64.15625 -128.3125 L 66.75 -126.625 L 57.28125 -107.53125 C 54.832031 -108.957031 52.132812 -109.671875 49.1875 -109.671875 C 45.820312 -109.671875 43.578125 -108.523438 42.453125 -106.234375 C 41.335938 -103.941406 40.78125 -99.945312 40.78125 -94.25 L 40.78125 -78.359375 L 58.8125 -78.359375 L 58.8125 -57.734375 L 40.78125 -57.734375 L 40.78125 0 L 13.75 0 L 13.75 -57.734375 L 2.4375 -57.734375 L 2.4375 -78.359375 Z M 13.75 -78.359375 "/></g></g></g><g fill="#219f2e" fill-opacity="1"><g transform="translate(29.012167, 293.627266)"><g><path d="M 0.484375 -0.96875 C 0.410156 -1.070312 0.375 -1.175781 0.375 -1.28125 C 0.375 -1.4375 0.457031 -1.570312 0.625 -1.6875 C 0.707031 -1.738281 0.796875 -1.765625 0.890625 -1.765625 C 1.035156 -1.765625 1.164062 -1.707031 1.28125 -1.59375 C 1.519531 -1.320312 1.773438 -1.117188 2.046875 -0.984375 C 2.316406 -0.859375 2.640625 -0.796875 3.015625 -0.796875 C 3.316406 -0.796875 3.578125 -0.859375 3.796875 -0.984375 C 4.023438 -1.117188 4.140625 -1.332031 4.140625 -1.625 C 4.140625 -1.894531 4.023438 -2.097656 3.796875 -2.234375 C 3.566406 -2.378906 3.226562 -2.507812 2.78125 -2.625 C 2.34375 -2.738281 1.976562 -2.859375 1.6875 -2.984375 C 1.394531 -3.117188 1.144531 -3.3125 0.9375 -3.5625 C 0.738281 -3.8125 0.640625 -4.132812 0.640625 -4.53125 C 0.640625 -4.882812 0.738281 -5.191406 0.9375 -5.453125 C 1.144531 -5.722656 1.414062 -5.929688 1.75 -6.078125 C 2.082031 -6.234375 2.445312 -6.3125 2.84375 -6.3125 C 3.21875 -6.3125 3.59375 -6.238281 3.96875 -6.09375 C 4.34375 -5.957031 4.644531 -5.742188 4.875 -5.453125 C 4.96875 -5.347656 5.015625 -5.234375 5.015625 -5.109375 C 5.015625 -4.984375 4.953125 -4.863281 4.828125 -4.75 C 4.753906 -4.675781 4.65625 -4.640625 4.53125 -4.640625 C 4.394531 -4.640625 4.28125 -4.6875 4.1875 -4.78125 C 4.03125 -4.96875 3.832031 -5.113281 3.59375 -5.21875 C 3.351562 -5.320312 3.085938 -5.375 2.796875 -5.375 C 2.492188 -5.375 2.238281 -5.3125 2.03125 -5.1875 C 1.820312 -5.0625 1.71875 -4.859375 1.71875 -4.578125 C 1.726562 -4.296875 1.847656 -4.085938 2.078125 -3.953125 C 2.304688 -3.828125 2.660156 -3.695312 3.140625 -3.5625 C 3.554688 -3.457031 3.898438 -3.34375 4.171875 -3.21875 C 4.453125 -3.09375 4.6875 -2.90625 4.875 -2.65625 C 5.0625 -2.40625 5.15625 -2.082031 5.15625 -1.6875 C 5.15625 -1.3125 5.050781 -0.988281 4.84375 -0.71875 C 4.632812 -0.445312 4.359375 -0.238281 4.015625 -0.09375 C 3.671875 0.0507812 3.304688 0.125 2.921875 0.125 C 2.421875 0.125 1.960938 0.0351562 1.546875 -0.140625 C 1.128906 -0.316406 0.773438 -0.59375 0.484375 -0.96875 Z M 0.484375 -0.96875 "/></g></g></g><g fill="#219f2e" fill-opacity="1"><g transform="translate(42.304888, 293.627266)"><g><path d="M 6.6875 -3.09375 C 6.6875 -2.476562 6.546875 -1.925781 6.265625 -1.4375 C 5.992188 -0.945312 5.617188 -0.5625 5.140625 -0.28125 C 4.671875 -0.0078125 4.144531 0.125 3.5625 0.125 C 2.988281 0.125 2.460938 -0.0078125 1.984375 -0.28125 C 1.515625 -0.5625 1.140625 -0.945312 0.859375 -1.4375 C 0.585938 -1.925781 0.453125 -2.476562 0.453125 -3.09375 C 0.453125 -3.695312 0.585938 -4.242188 0.859375 -4.734375 C 1.140625 -5.234375 1.515625 -5.617188 1.984375 -5.890625 C 2.460938 -6.171875 2.988281 -6.3125 3.5625 -6.3125 C 4.144531 -6.3125 4.671875 -6.171875 5.140625 -5.890625 C 5.617188 -5.617188 5.992188 -5.234375 6.265625 -4.734375 C 6.546875 -4.242188 6.6875 -3.695312 6.6875 -3.09375 Z M 5.5625 -3.09375 C 5.5625 -3.507812 5.472656 -3.882812 5.296875 -4.21875 C 5.117188 -4.550781 4.878906 -4.8125 4.578125 -5 C 4.273438 -5.1875 3.9375 -5.28125 3.5625 -5.28125 C 3.195312 -5.28125 2.863281 -5.1875 2.5625 -5 C 2.257812 -4.8125 2.019531 -4.550781 1.84375 -4.21875 C 1.664062 -3.882812 1.578125 -3.507812 1.578125 -3.09375 C 1.578125 -2.675781 1.664062 -2.300781 1.84375 -1.96875 C 2.019531 -1.632812 2.257812 -1.375 2.5625 -1.1875 C 2.863281 -1.007812 3.195312 -0.921875 3.5625 -0.921875 C 3.9375 -0.921875 4.273438 -1.007812 4.578125 -1.1875 C 4.878906 -1.375 5.117188 -1.632812 5.296875 -1.96875 C 5.472656 -2.300781 5.5625 -2.675781 5.5625 -3.09375 Z M 5.5625 -3.09375 "/></g></g></g><g fill="#219f2e" fill-opacity="1"><g transform="translate(57.11537, 293.627266)"><g><path d="M 3.515625 -6.3125 C 4.140625 -6.3125 4.65625 -6.210938 5.0625 -6.015625 C 5.476562 -5.816406 5.6875 -5.566406 5.6875 -5.265625 C 5.6875 -5.128906 5.644531 -5.007812 5.5625 -4.90625 C 5.476562 -4.800781 5.367188 -4.75 5.234375 -4.75 C 5.128906 -4.75 5.046875 -4.765625 4.984375 -4.796875 C 4.929688 -4.828125 4.851562 -4.878906 4.75 -4.953125 C 4.695312 -4.992188 4.625 -5.046875 4.53125 -5.109375 C 4.425781 -5.160156 4.285156 -5.203125 4.109375 -5.234375 C 3.941406 -5.265625 3.789062 -5.28125 3.65625 -5.28125 C 3.25 -5.28125 2.882812 -5.1875 2.5625 -5 C 2.25 -4.8125 2.003906 -4.550781 1.828125 -4.21875 C 1.660156 -3.882812 1.578125 -3.507812 1.578125 -3.09375 C 1.578125 -2.675781 1.660156 -2.300781 1.828125 -1.96875 C 1.992188 -1.644531 2.226562 -1.390625 2.53125 -1.203125 C 2.84375 -1.015625 3.195312 -0.921875 3.59375 -0.921875 C 4 -0.921875 4.328125 -0.984375 4.578125 -1.109375 C 4.640625 -1.140625 4.71875 -1.191406 4.8125 -1.265625 C 4.882812 -1.328125 4.945312 -1.375 5 -1.40625 C 5.0625 -1.4375 5.140625 -1.453125 5.234375 -1.453125 C 5.390625 -1.453125 5.507812 -1.398438 5.59375 -1.296875 C 5.6875 -1.203125 5.734375 -1.078125 5.734375 -0.921875 C 5.734375 -0.753906 5.628906 -0.585938 5.421875 -0.421875 C 5.210938 -0.265625 4.929688 -0.132812 4.578125 -0.03125 C 4.234375 0.0703125 3.863281 0.125 3.46875 0.125 C 2.863281 0.125 2.332031 -0.015625 1.875 -0.296875 C 1.425781 -0.578125 1.078125 -0.960938 0.828125 -1.453125 C 0.578125 -1.941406 0.453125 -2.488281 0.453125 -3.09375 C 0.453125 -3.695312 0.582031 -4.242188 0.84375 -4.734375 C 1.101562 -5.234375 1.460938 -5.617188 1.921875 -5.890625 C 2.390625 -6.171875 2.921875 -6.3125 3.515625 -6.3125 Z M 3.515625 -6.3125 "/></g></g></g><g fill="#219f2e" fill-opacity="1"><g transform="translate(70.843413, 293.627266)"><g><path d="M 1.890625 -0.5625 C 1.890625 -0.40625 1.835938 -0.269531 1.734375 -0.15625 C 1.628906 -0.0507812 1.492188 0 1.328125 0 C 1.171875 0 1.039062 -0.0507812 0.9375 -0.15625 C 0.832031 -0.269531 0.78125 -0.40625 0.78125 -0.5625 L 0.78125 -5.671875 C 0.78125 -5.828125 0.832031 -5.957031 0.9375 -6.0625 C 1.039062 -6.175781 1.171875 -6.234375 1.328125 -6.234375 C 1.492188 -6.234375 1.628906 -6.175781 1.734375 -6.0625 C 1.835938 -5.957031 1.890625 -5.828125 1.890625 -5.671875 Z M 1.34375 -7.015625 C 1.113281 -7.015625 0.945312 -7.050781 0.84375 -7.125 C 0.75 -7.207031 0.703125 -7.34375 0.703125 -7.53125 L 0.703125 -7.71875 C 0.703125 -7.90625 0.753906 -8.035156 0.859375 -8.109375 C 0.960938 -8.191406 1.125 -8.234375 1.34375 -8.234375 C 1.5625 -8.234375 1.71875 -8.191406 1.8125 -8.109375 C 1.914062 -8.023438 1.96875 -7.894531 1.96875 -7.71875 L 1.96875 -7.53125 C 1.96875 -7.34375 1.914062 -7.207031 1.8125 -7.125 C 1.71875 -7.050781 1.5625 -7.015625 1.34375 -7.015625 Z M 1.34375 -7.015625 "/></g></g></g><g fill="#219f2e" fill-opacity="1"><g transform="translate(81.194728, 293.627266)"><g><path d="M 5.84375 -6.25 C 6.007812 -6.25 6.144531 -6.195312 6.25 -6.09375 C 6.351562 -5.988281 6.40625 -5.847656 6.40625 -5.671875 L 6.40625 -0.5625 C 6.40625 -0.40625 6.351562 -0.269531 6.25 -0.15625 C 6.144531 -0.0507812 6.007812 0 5.84375 0 C 5.675781 0 5.539062 -0.0507812 5.4375 -0.15625 C 5.34375 -0.257812 5.296875 -0.394531 5.296875 -0.5625 L 5.296875 -0.875 C 5.085938 -0.59375 4.804688 -0.351562 4.453125 -0.15625 C 4.097656 0.03125 3.71875 0.125 3.3125 0.125 C 2.78125 0.125 2.296875 -0.0078125 1.859375 -0.28125 C 1.421875 -0.5625 1.078125 -0.945312 0.828125 -1.4375 C 0.578125 -1.925781 0.453125 -2.476562 0.453125 -3.09375 C 0.453125 -3.707031 0.578125 -4.257812 0.828125 -4.75 C 1.078125 -5.238281 1.414062 -5.617188 1.84375 -5.890625 C 2.28125 -6.171875 2.757812 -6.3125 3.28125 -6.3125 C 3.695312 -6.3125 4.082031 -6.222656 4.4375 -6.046875 C 4.789062 -5.878906 5.078125 -5.660156 5.296875 -5.390625 L 5.296875 -5.671875 C 5.296875 -5.835938 5.34375 -5.972656 5.4375 -6.078125 C 5.539062 -6.191406 5.675781 -6.25 5.84375 -6.25 Z M 3.4375 -0.921875 C 3.8125 -0.921875 4.140625 -1.015625 4.421875 -1.203125 C 4.710938 -1.390625 4.9375 -1.644531 5.09375 -1.96875 C 5.257812 -2.300781 5.34375 -2.675781 5.34375 -3.09375 C 5.34375 -3.507812 5.257812 -3.878906 5.09375 -4.203125 C 4.9375 -4.535156 4.710938 -4.796875 4.421875 -4.984375 C 4.140625 -5.179688 3.8125 -5.28125 3.4375 -5.28125 C 3.070312 -5.28125 2.742188 -5.1875 2.453125 -5 C 2.171875 -4.8125 1.945312 -4.550781 1.78125 -4.21875 C 1.625 -3.882812 1.546875 -3.507812 1.546875 -3.09375 C 1.546875 -2.675781 1.625 -2.300781 1.78125 -1.96875 C 1.945312 -1.644531 2.171875 -1.390625 2.453125 -1.203125 C 2.742188 -1.015625 3.070312 -0.921875 3.4375 -0.921875 Z M 3.4375 -0.921875 "/></g></g></g><g fill="#219f2e" fill-opacity="1"><g transform="translate(96.09934, 293.627266)"><g><path d="M 2.046875 -0.5625 C 2.046875 -0.40625 1.988281 -0.269531 1.875 -0.15625 C 1.769531 -0.0507812 1.640625 0 1.484375 0 C 1.328125 0 1.195312 -0.0507812 1.09375 -0.15625 C 0.988281 -0.269531 0.9375 -0.40625 0.9375 -0.5625 L 0.9375 -8.15625 C 0.9375 -8.3125 0.988281 -8.441406 1.09375 -8.546875 C 1.207031 -8.660156 1.34375 -8.71875 1.5 -8.71875 C 1.65625 -8.71875 1.785156 -8.660156 1.890625 -8.546875 C 1.992188 -8.441406 2.046875 -8.3125 2.046875 -8.15625 Z M 2.046875 -0.5625 "/></g></g></g><g fill="#219f2e" fill-opacity="1"><g transform="translate(106.75657, 293.627266)"><g/></g></g><g fill="#219f2e" fill-opacity="1"><g transform="translate(117.696171, 293.627266)"><g><path d="M 7.921875 -6.28125 C 9.296875 -6.28125 9.984375 -5.425781 9.984375 -3.71875 L 9.984375 -0.5625 C 9.984375 -0.394531 9.929688 -0.257812 9.828125 -0.15625 C 9.722656 -0.0507812 9.585938 0 9.421875 0 C 9.253906 0 9.117188 -0.0507812 9.015625 -0.15625 C 8.910156 -0.269531 8.859375 -0.40625 8.859375 -0.5625 L 8.859375 -3.703125 C 8.859375 -4.734375 8.425781 -5.25 7.5625 -5.25 C 7.257812 -5.25 6.984375 -5.175781 6.734375 -5.03125 C 6.484375 -4.894531 6.289062 -4.707031 6.15625 -4.46875 C 6.019531 -4.238281 5.953125 -3.984375 5.953125 -3.703125 L 5.953125 -0.5625 C 5.953125 -0.40625 5.894531 -0.269531 5.78125 -0.15625 C 5.675781 -0.0507812 5.546875 0 5.390625 0 C 5.222656 0 5.085938 -0.0507812 4.984375 -0.15625 C 4.878906 -0.257812 4.828125 -0.394531 4.828125 -0.5625 L 4.828125 -3.71875 C 4.828125 -4.175781 4.726562 -4.546875 4.53125 -4.828125 C 4.332031 -5.109375 4.007812 -5.25 3.5625 -5.25 C 3.09375 -5.25 2.707031 -5.097656 2.40625 -4.796875 C 2.101562 -4.503906 1.953125 -4.144531 1.953125 -3.71875 L 1.953125 -0.5625 C 1.953125 -0.40625 1.898438 -0.269531 1.796875 -0.15625 C 1.691406 -0.0507812 1.554688 0 1.390625 0 C 1.222656 0 1.085938 -0.0507812 0.984375 -0.15625 C 0.890625 -0.257812 0.84375 -0.394531 0.84375 -0.5625 L 0.84375 -5.609375 C 0.84375 -5.765625 0.894531 -5.894531 1 -6 C 1.101562 -6.113281 1.234375 -6.171875 1.390625 -6.171875 C 1.554688 -6.171875 1.691406 -6.113281 1.796875 -6 C 1.898438 -5.894531 1.953125 -5.765625 1.953125 -5.609375 L 1.953125 -5.203125 C 2.160156 -5.503906 2.429688 -5.757812 2.765625 -5.96875 C 3.109375 -6.175781 3.484375 -6.28125 3.890625 -6.28125 C 4.859375 -6.28125 5.488281 -5.847656 5.78125 -4.984375 C 5.957031 -5.316406 6.242188 -5.613281 6.640625 -5.875 C 7.046875 -6.144531 7.472656 -6.28125 7.921875 -6.28125 Z M 7.921875 -6.28125 "/></g></g></g><g fill="#219f2e" fill-opacity="1"><g transform="translate(136.17752, 293.627266)"><g><path d="M 6.25 -3.328125 C 6.25 -3.179688 6.191406 -3.054688 6.078125 -2.953125 C 5.972656 -2.859375 5.84375 -2.8125 5.6875 -2.8125 L 1.546875 -2.8125 C 1.597656 -2.238281 1.8125 -1.78125 2.1875 -1.4375 C 2.570312 -1.09375 3.039062 -0.921875 3.59375 -0.921875 C 3.96875 -0.921875 4.269531 -0.972656 4.5 -1.078125 C 4.738281 -1.191406 4.953125 -1.335938 5.140625 -1.515625 C 5.253906 -1.578125 5.367188 -1.609375 5.484375 -1.609375 C 5.609375 -1.609375 5.71875 -1.5625 5.8125 -1.46875 C 5.90625 -1.375 5.953125 -1.265625 5.953125 -1.140625 C 5.953125 -0.972656 5.875 -0.820312 5.71875 -0.6875 C 5.488281 -0.46875 5.179688 -0.273438 4.796875 -0.109375 C 4.421875 0.046875 4.039062 0.125 3.65625 0.125 C 3.019531 0.125 2.457031 -0.0078125 1.96875 -0.28125 C 1.488281 -0.550781 1.113281 -0.925781 0.84375 -1.40625 C 0.582031 -1.882812 0.453125 -2.425781 0.453125 -3.03125 C 0.453125 -3.6875 0.585938 -4.265625 0.859375 -4.765625 C 1.128906 -5.265625 1.488281 -5.644531 1.9375 -5.90625 C 2.382812 -6.175781 2.863281 -6.3125 3.375 -6.3125 C 3.875 -6.3125 4.34375 -6.179688 4.78125 -5.921875 C 5.21875 -5.660156 5.570312 -5.300781 5.84375 -4.84375 C 6.113281 -4.394531 6.25 -3.890625 6.25 -3.328125 Z M 3.375 -5.28125 C 2.925781 -5.28125 2.539062 -5.15625 2.21875 -4.90625 C 1.90625 -4.65625 1.695312 -4.273438 1.59375 -3.765625 L 5.0625 -3.765625 L 5.0625 -3.859375 C 5.019531 -4.273438 4.832031 -4.613281 4.5 -4.875 C 4.164062 -5.144531 3.789062 -5.28125 3.375 -5.28125 Z M 3.375 -5.28125 "/></g></g></g><g fill="#219f2e" fill-opacity="1"><g transform="translate(150.564436, 293.627266)"><g><path d="M 5.84375 -8.71875 C 6.007812 -8.71875 6.144531 -8.664062 6.25 -8.5625 C 6.351562 -8.457031 6.40625 -8.320312 6.40625 -8.15625 L 6.40625 -0.5625 C 6.40625 -0.40625 6.351562 -0.269531 6.25 -0.15625 C 6.144531 -0.0507812 6.007812 0 5.84375 0 C 5.675781 0 5.539062 -0.0507812 5.4375 -0.15625 C 5.34375 -0.257812 5.296875 -0.394531 5.296875 -0.5625 L 5.296875 -0.890625 C 5.097656 -0.609375 4.816406 -0.367188 4.453125 -0.171875 C 4.097656 0.0234375 3.71875 0.125 3.3125 0.125 C 2.78125 0.125 2.296875 -0.0078125 1.859375 -0.28125 C 1.429688 -0.5625 1.085938 -0.945312 0.828125 -1.4375 C 0.578125 -1.925781 0.453125 -2.476562 0.453125 -3.09375 C 0.453125 -3.707031 0.578125 -4.257812 0.828125 -4.75 C 1.078125 -5.238281 1.414062 -5.617188 1.84375 -5.890625 C 2.28125 -6.171875 2.757812 -6.3125 3.28125 -6.3125 C 3.695312 -6.3125 4.078125 -6.222656 4.421875 -6.046875 C 4.773438 -5.878906 5.066406 -5.660156 5.296875 -5.390625 L 5.296875 -8.15625 C 5.296875 -8.320312 5.34375 -8.457031 5.4375 -8.5625 C 5.539062 -8.664062 5.675781 -8.71875 5.84375 -8.71875 Z M 3.4375 -0.921875 C 3.8125 -0.921875 4.140625 -1.015625 4.421875 -1.203125 C 4.710938 -1.390625 4.9375 -1.644531 5.09375 -1.96875 C 5.257812 -2.300781 5.34375 -2.675781 5.34375 -3.09375 C 5.34375 -3.507812 5.257812 -3.882812 5.09375 -4.21875 C 4.9375 -4.550781 4.710938 -4.8125 4.421875 -5 C 4.140625 -5.1875 3.8125 -5.28125 3.4375 -5.28125 C 3.070312 -5.28125 2.742188 -5.1875 2.453125 -5 C 2.171875 -4.8125 1.945312 -4.550781 1.78125 -4.21875 C 1.625 -3.882812 1.546875 -3.507812 1.546875 -3.09375 C 1.546875 -2.675781 1.625 -2.300781 1.78125 -1.96875 C 1.945312 -1.644531 2.171875 -1.390625 2.453125 -1.203125 C 2.742188 -1.015625 3.070312 -0.921875 3.4375 -0.921875 Z M 3.4375 -0.921875 "/></g></g></g><g fill="#219f2e" fill-opacity="1"><g transform="translate(165.469048, 293.627266)"><g><path d="M 1.890625 -0.5625 C 1.890625 -0.40625 1.835938 -0.269531 1.734375 -0.15625 C 1.628906 -0.0507812 1.492188 0 1.328125 0 C 1.171875 0 1.039062 -0.0507812 0.9375 -0.15625 C 0.832031 -0.269531 0.78125 -0.40625 0.78125 -0.5625 L 0.78125 -5.671875 C 0.78125 -5.828125 0.832031 -5.957031 0.9375 -6.0625 C 1.039062 -6.175781 1.171875 -6.234375 1.328125 -6.234375 C 1.492188 -6.234375 1.628906 -6.175781 1.734375 -6.0625 C 1.835938 -5.957031 1.890625 -5.828125 1.890625 -5.671875 Z M 1.34375 -7.015625 C 1.113281 -7.015625 0.945312 -7.050781 0.84375 -7.125 C 0.75 -7.207031 0.703125 -7.34375 0.703125 -7.53125 L 0.703125 -7.71875 C 0.703125 -7.90625 0.753906 -8.035156 0.859375 -8.109375 C 0.960938 -8.191406 1.125 -8.234375 1.34375 -8.234375 C 1.5625 -8.234375 1.71875 -8.191406 1.8125 -8.109375 C 1.914062 -8.023438 1.96875 -7.894531 1.96875 -7.71875 L 1.96875 -7.53125 C 1.96875 -7.34375 1.914062 -7.207031 1.8125 -7.125 C 1.71875 -7.050781 1.5625 -7.015625 1.34375 -7.015625 Z M 1.34375 -7.015625 "/></g></g></g><g fill="#219f2e" fill-opacity="1"><g transform="translate(175.820366, 293.627266)"><g><path d="M 5.84375 -6.25 C 6.007812 -6.25 6.144531 -6.195312 6.25 -6.09375 C 6.351562 -5.988281 6.40625 -5.847656 6.40625 -5.671875 L 6.40625 -0.5625 C 6.40625 -0.40625 6.351562 -0.269531 6.25 -0.15625 C 6.144531 -0.0507812 6.007812 0 5.84375 0 C 5.675781 0 5.539062 -0.0507812 5.4375 -0.15625 C 5.34375 -0.257812 5.296875 -0.394531 5.296875 -0.5625 L 5.296875 -0.875 C 5.085938 -0.59375 4.804688 -0.351562 4.453125 -0.15625 C 4.097656 0.03125 3.71875 0.125 3.3125 0.125 C 2.78125 0.125 2.296875 -0.0078125 1.859375 -0.28125 C 1.421875 -0.5625 1.078125 -0.945312 0.828125 -1.4375 C 0.578125 -1.925781 0.453125 -2.476562 0.453125 -3.09375 C 0.453125 -3.707031 0.578125 -4.257812 0.828125 -4.75 C 1.078125 -5.238281 1.414062 -5.617188 1.84375 -5.890625 C 2.28125 -6.171875 2.757812 -6.3125 3.28125 -6.3125 C 3.695312 -6.3125 4.082031 -6.222656 4.4375 -6.046875 C 4.789062 -5.878906 5.078125 -5.660156 5.296875 -5.390625 L 5.296875 -5.671875 C 5.296875 -5.835938 5.34375 -5.972656 5.4375 -6.078125 C 5.539062 -6.191406 5.675781 -6.25 5.84375 -6.25 Z M 3.4375 -0.921875 C 3.8125 -0.921875 4.140625 -1.015625 4.421875 -1.203125 C 4.710938 -1.390625 4.9375 -1.644531 5.09375 -1.96875 C 5.257812 -2.300781 5.34375 -2.675781 5.34375 -3.09375 C 5.34375 -3.507812 5.257812 -3.878906 5.09375 -4.203125 C 4.9375 -4.535156 4.710938 -4.796875 4.421875 -4.984375 C 4.140625 -5.179688 3.8125 -5.28125 3.4375 -5.28125 C 3.070312 -5.28125 2.742188 -5.1875 2.453125 -5 C 2.171875 -4.8125 1.945312 -4.550781 1.78125 -4.21875 C 1.625 -3.882812 1.546875 -3.507812 1.546875 -3.09375 C 1.546875 -2.675781 1.625 -2.300781 1.78125 -1.96875 C 1.945312 -1.644531 2.171875 -1.390625 2.453125 -1.203125 C 2.742188 -1.015625 3.070312 -0.921875 3.4375 -0.921875 Z M 3.4375 -0.921875 "/></g></g></g><g fill="#219f2e" fill-opacity="1"><g transform="translate(190.724979, 293.627266)"><g/></g></g><g fill="#219f2e" fill-opacity="1"><g transform="translate(201.66458, 293.627266)"><g><path d="M 7.921875 -6.28125 C 9.296875 -6.28125 9.984375 -5.425781 9.984375 -3.71875 L 9.984375 -0.5625 C 9.984375 -0.394531 9.929688 -0.257812 9.828125 -0.15625 C 9.722656 -0.0507812 9.585938 0 9.421875 0 C 9.253906 0 9.117188 -0.0507812 9.015625 -0.15625 C 8.910156 -0.269531 8.859375 -0.40625 8.859375 -0.5625 L 8.859375 -3.703125 C 8.859375 -4.734375 8.425781 -5.25 7.5625 -5.25 C 7.257812 -5.25 6.984375 -5.175781 6.734375 -5.03125 C 6.484375 -4.894531 6.289062 -4.707031 6.15625 -4.46875 C 6.019531 -4.238281 5.953125 -3.984375 5.953125 -3.703125 L 5.953125 -0.5625 C 5.953125 -0.40625 5.894531 -0.269531 5.78125 -0.15625 C 5.675781 -0.0507812 5.546875 0 5.390625 0 C 5.222656 0 5.085938 -0.0507812 4.984375 -0.15625 C 4.878906 -0.257812 4.828125 -0.394531 4.828125 -0.5625 L 4.828125 -3.71875 C 4.828125 -4.175781 4.726562 -4.546875 4.53125 -4.828125 C 4.332031 -5.109375 4.007812 -5.25 3.5625 -5.25 C 3.09375 -5.25 2.707031 -5.097656 2.40625 -4.796875 C 2.101562 -4.503906 1.953125 -4.144531 1.953125 -3.71875 L 1.953125 -0.5625 C 1.953125 -0.40625 1.898438 -0.269531 1.796875 -0.15625 C 1.691406 -0.0507812 1.554688 0 1.390625 0 C 1.222656 0 1.085938 -0.0507812 0.984375 -0.15625 C 0.890625 -0.257812 0.84375 -0.394531 0.84375 -0.5625 L 0.84375 -5.609375 C 0.84375 -5.765625 0.894531 -5.894531 1 -6 C 1.101562 -6.113281 1.234375 -6.171875 1.390625 -6.171875 C 1.554688 -6.171875 1.691406 -6.113281 1.796875 -6 C 1.898438 -5.894531 1.953125 -5.765625 1.953125 -5.609375 L 1.953125 -5.203125 C 2.160156 -5.503906 2.429688 -5.757812 2.765625 -5.96875 C 3.109375 -6.175781 3.484375 -6.28125 3.890625 -6.28125 C 4.859375 -6.28125 5.488281 -5.847656 5.78125 -4.984375 C 5.957031 -5.316406 6.242188 -5.613281 6.640625 -5.875 C 7.046875 -6.144531 7.472656 -6.28125 7.921875 -6.28125 Z M 7.921875 -6.28125 "/></g></g></g><g fill="#219f2e" fill-opacity="1"><g transform="translate(220.145929, 293.627266)"><g><path d="M 5.84375 -6.25 C 6.007812 -6.25 6.144531 -6.195312 6.25 -6.09375 C 6.351562 -5.988281 6.40625 -5.847656 6.40625 -5.671875 L 6.40625 -0.5625 C 6.40625 -0.40625 6.351562 -0.269531 6.25 -0.15625 C 6.144531 -0.0507812 6.007812 0 5.84375 0 C 5.675781 0 5.539062 -0.0507812 5.4375 -0.15625 C 5.34375 -0.257812 5.296875 -0.394531 5.296875 -0.5625 L 5.296875 -0.875 C 5.085938 -0.59375 4.804688 -0.351562 4.453125 -0.15625 C 4.097656 0.03125 3.71875 0.125 3.3125 0.125 C 2.78125 0.125 2.296875 -0.0078125 1.859375 -0.28125 C 1.421875 -0.5625 1.078125 -0.945312 0.828125 -1.4375 C 0.578125 -1.925781 0.453125 -2.476562 0.453125 -3.09375 C 0.453125 -3.707031 0.578125 -4.257812 0.828125 -4.75 C 1.078125 -5.238281 1.414062 -5.617188 1.84375 -5.890625 C 2.28125 -6.171875 2.757812 -6.3125 3.28125 -6.3125 C 3.695312 -6.3125 4.082031 -6.222656 4.4375 -6.046875 C 4.789062 -5.878906 5.078125 -5.660156 5.296875 -5.390625 L 5.296875 -5.671875 C 5.296875 -5.835938 5.34375 -5.972656 5.4375 -6.078125 C 5.539062 -6.191406 5.675781 -6.25 5.84375 -6.25 Z M 3.4375 -0.921875 C 3.8125 -0.921875 4.140625 -1.015625 4.421875 -1.203125 C 4.710938 -1.390625 4.9375 -1.644531 5.09375 -1.96875 C 5.257812 -2.300781 5.34375 -2.675781 5.34375 -3.09375 C 5.34375 -3.507812 5.257812 -3.878906 5.09375 -4.203125 C 4.9375 -4.535156 4.710938 -4.796875 4.421875 -4.984375 C 4.140625 -5.179688 3.8125 -5.28125 3.4375 -5.28125 C 3.070312 -5.28125 2.742188 -5.1875 2.453125 -5 C 2.171875 -4.8125 1.945312 -4.550781 1.78125 -4.21875 C 1.625 -3.882812 1.546875 -3.507812 1.546875 -3.09375 C 1.546875 -2.675781 1.625 -2.300781 1.78125 -1.96875 C 1.945312 -1.644531 2.171875 -1.390625 2.453125 -1.203125 C 2.742188 -1.015625 3.070312 -0.921875 3.4375 -0.921875 Z M 3.4375 -0.921875 "/></g></g></g><g fill="#219f2e" fill-opacity="1"><g transform="translate(235.05053, 293.627266)"><g><path d="M 3.984375 -6.3125 C 5.398438 -6.3125 6.109375 -5.460938 6.109375 -3.765625 L 6.109375 -0.5625 C 6.109375 -0.40625 6.050781 -0.269531 5.9375 -0.15625 C 5.832031 -0.0507812 5.695312 0 5.53125 0 C 5.375 0 5.242188 -0.0507812 5.140625 -0.15625 C 5.035156 -0.269531 4.984375 -0.40625 4.984375 -0.5625 L 4.984375 -3.765625 C 4.984375 -4.222656 4.875 -4.585938 4.65625 -4.859375 C 4.445312 -5.140625 4.101562 -5.28125 3.625 -5.28125 C 3.3125 -5.28125 3.023438 -5.207031 2.765625 -5.0625 C 2.515625 -4.925781 2.316406 -4.742188 2.171875 -4.515625 C 2.023438 -4.285156 1.953125 -4.035156 1.953125 -3.765625 L 1.953125 -0.5625 C 1.953125 -0.40625 1.898438 -0.269531 1.796875 -0.15625 C 1.691406 -0.0507812 1.554688 0 1.390625 0 C 1.222656 0 1.085938 -0.0507812 0.984375 -0.15625 C 0.890625 -0.257812 0.84375 -0.394531 0.84375 -0.5625 L 0.84375 -5.609375 C 0.84375 -5.765625 0.894531 -5.894531 1 -6 C 1.101562 -6.113281 1.234375 -6.171875 1.390625 -6.171875 C 1.554688 -6.171875 1.691406 -6.113281 1.796875 -6 C 1.898438 -5.894531 1.953125 -5.765625 1.953125 -5.609375 L 1.953125 -5.203125 C 2.160156 -5.515625 2.445312 -5.773438 2.8125 -5.984375 C 3.175781 -6.203125 3.566406 -6.3125 3.984375 -6.3125 Z M 3.984375 -6.3125 "/></g></g></g><g fill="#219f2e" fill-opacity="1"><g transform="translate(249.660995, 293.627266)"><g><path d="M 5.84375 -6.25 C 6.007812 -6.25 6.144531 -6.195312 6.25 -6.09375 C 6.351562 -5.988281 6.40625 -5.847656 6.40625 -5.671875 L 6.40625 -0.5625 C 6.40625 -0.40625 6.351562 -0.269531 6.25 -0.15625 C 6.144531 -0.0507812 6.007812 0 5.84375 0 C 5.675781 0 5.539062 -0.0507812 5.4375 -0.15625 C 5.34375 -0.257812 5.296875 -0.394531 5.296875 -0.5625 L 5.296875 -0.875 C 5.085938 -0.59375 4.804688 -0.351562 4.453125 -0.15625 C 4.097656 0.03125 3.71875 0.125 3.3125 0.125 C 2.78125 0.125 2.296875 -0.0078125 1.859375 -0.28125 C 1.421875 -0.5625 1.078125 -0.945312 0.828125 -1.4375 C 0.578125 -1.925781 0.453125 -2.476562 0.453125 -3.09375 C 0.453125 -3.707031 0.578125 -4.257812 0.828125 -4.75 C 1.078125 -5.238281 1.414062 -5.617188 1.84375 -5.890625 C 2.28125 -6.171875 2.757812 -6.3125 3.28125 -6.3125 C 3.695312 -6.3125 4.082031 -6.222656 4.4375 -6.046875 C 4.789062 -5.878906 5.078125 -5.660156 5.296875 -5.390625 L 5.296875 -5.671875 C 5.296875 -5.835938 5.34375 -5.972656 5.4375 -6.078125 C 5.539062 -6.191406 5.675781 -6.25 5.84375 -6.25 Z M 3.4375 -0.921875 C 3.8125 -0.921875 4.140625 -1.015625 4.421875 -1.203125 C 4.710938 -1.390625 4.9375 -1.644531 5.09375 -1.96875 C 5.257812 -2.300781 5.34375 -2.675781 5.34375 -3.09375 C 5.34375 -3.507812 5.257812 -3.878906 5.09375 -4.203125 C 4.9375 -4.535156 4.710938 -4.796875 4.421875 -4.984375 C 4.140625 -5.179688 3.8125 -5.28125 3.4375 -5.28125 C 3.070312 -5.28125 2.742188 -5.1875 2.453125 -5 C 2.171875 -4.8125 1.945312 -4.550781 1.78125 -4.21875 C 1.625 -3.882812 1.546875 -3.507812 1.546875 -3.09375 C 1.546875 -2.675781 1.625 -2.300781 1.78125 -1.96875 C 1.945312 -1.644531 2.171875 -1.390625 2.453125 -1.203125 C 2.742188 -1.015625 3.070312 -0.921875 3.4375 -0.921875 Z M 3.4375 -0.921875 "/></g></g></g><g fill="#219f2e" fill-opacity="1"><g transform="translate(264.565596, 293.627266)"><g><path d="M 6 -6.25 C 6.164062 -6.25 6.300781 -6.195312 6.40625 -6.09375 C 6.507812 -5.988281 6.5625 -5.847656 6.5625 -5.671875 L 6.5625 -0.5 C 6.5625 0.132812 6.425781 0.664062 6.15625 1.09375 C 5.882812 1.53125 5.515625 1.847656 5.046875 2.046875 C 4.585938 2.253906 4.066406 2.359375 3.484375 2.359375 C 3.171875 2.359375 2.800781 2.300781 2.375 2.1875 C 1.957031 2.082031 1.691406 1.96875 1.578125 1.84375 C 1.335938 1.71875 1.21875 1.5625 1.21875 1.375 C 1.21875 1.332031 1.234375 1.269531 1.265625 1.1875 C 1.347656 0.988281 1.492188 0.890625 1.703125 0.890625 C 1.796875 0.890625 1.90625 0.914062 2.03125 0.96875 C 2.65625 1.207031 3.144531 1.328125 3.5 1.328125 C 4.125 1.328125 4.601562 1.175781 4.9375 0.875 C 5.269531 0.570312 5.4375 0.160156 5.4375 -0.359375 L 5.4375 -1 C 5.28125 -0.695312 5.003906 -0.429688 4.609375 -0.203125 C 4.222656 0.015625 3.8125 0.125 3.375 0.125 C 2.832031 0.125 2.335938 -0.0078125 1.890625 -0.28125 C 1.441406 -0.5625 1.085938 -0.945312 0.828125 -1.4375 C 0.578125 -1.925781 0.453125 -2.476562 0.453125 -3.09375 C 0.453125 -3.707031 0.578125 -4.257812 0.828125 -4.75 C 1.085938 -5.238281 1.441406 -5.617188 1.890625 -5.890625 C 2.335938 -6.171875 2.828125 -6.3125 3.359375 -6.3125 C 3.785156 -6.3125 4.1875 -6.210938 4.5625 -6.015625 C 4.9375 -5.816406 5.226562 -5.578125 5.4375 -5.296875 L 5.4375 -5.671875 C 5.4375 -5.835938 5.488281 -5.972656 5.59375 -6.078125 C 5.695312 -6.191406 5.832031 -6.25 6 -6.25 Z M 3.515625 -0.921875 C 3.898438 -0.921875 4.238281 -1.007812 4.53125 -1.1875 C 4.832031 -1.375 5.066406 -1.632812 5.234375 -1.96875 C 5.398438 -2.300781 5.484375 -2.675781 5.484375 -3.09375 C 5.484375 -3.507812 5.398438 -3.882812 5.234375 -4.21875 C 5.066406 -4.550781 4.832031 -4.8125 4.53125 -5 C 4.238281 -5.1875 3.898438 -5.28125 3.515625 -5.28125 C 3.128906 -5.28125 2.785156 -5.1875 2.484375 -5 C 2.191406 -4.8125 1.960938 -4.550781 1.796875 -4.21875 C 1.628906 -3.882812 1.546875 -3.507812 1.546875 -3.09375 C 1.546875 -2.6875 1.628906 -2.316406 1.796875 -1.984375 C 1.960938 -1.648438 2.191406 -1.390625 2.484375 -1.203125 C 2.785156 -1.015625 3.128906 -0.921875 3.515625 -0.921875 Z M 3.515625 -0.921875 "/></g></g></g><g fill="#219f2e" fill-opacity="1"><g transform="translate(279.623159, 293.627266)"><g><path d="M 6.25 -3.328125 C 6.25 -3.179688 6.191406 -3.054688 6.078125 -2.953125 C 5.972656 -2.859375 5.84375 -2.8125 5.6875 -2.8125 L 1.546875 -2.8125 C 1.597656 -2.238281 1.8125 -1.78125 2.1875 -1.4375 C 2.570312 -1.09375 3.039062 -0.921875 3.59375 -0.921875 C 3.96875 -0.921875 4.269531 -0.972656 4.5 -1.078125 C 4.738281 -1.191406 4.953125 -1.335938 5.140625 -1.515625 C 5.253906 -1.578125 5.367188 -1.609375 5.484375 -1.609375 C 5.609375 -1.609375 5.71875 -1.5625 5.8125 -1.46875 C 5.90625 -1.375 5.953125 -1.265625 5.953125 -1.140625 C 5.953125 -0.972656 5.875 -0.820312 5.71875 -0.6875 C 5.488281 -0.46875 5.179688 -0.273438 4.796875 -0.109375 C 4.421875 0.046875 4.039062 0.125 3.65625 0.125 C 3.019531 0.125 2.457031 -0.0078125 1.96875 -0.28125 C 1.488281 -0.550781 1.113281 -0.925781 0.84375 -1.40625 C 0.582031 -1.882812 0.453125 -2.425781 0.453125 -3.03125 C 0.453125 -3.6875 0.585938 -4.265625 0.859375 -4.765625 C 1.128906 -5.265625 1.488281 -5.644531 1.9375 -5.90625 C 2.382812 -6.175781 2.863281 -6.3125 3.375 -6.3125 C 3.875 -6.3125 4.34375 -6.179688 4.78125 -5.921875 C 5.21875 -5.660156 5.570312 -5.300781 5.84375 -4.84375 C 6.113281 -4.394531 6.25 -3.890625 6.25 -3.328125 Z M 3.375 -5.28125 C 2.925781 -5.28125 2.539062 -5.15625 2.21875 -4.90625 C 1.90625 -4.65625 1.695312 -4.273438 1.59375 -3.765625 L 5.0625 -3.765625 L 5.0625 -3.859375 C 5.019531 -4.273438 4.832031 -4.613281 4.5 -4.875 C 4.164062 -5.144531 3.789062 -5.28125 3.375 -5.28125 Z M 3.375 -5.28125 "/></g></g></g><g fill="#219f2e" fill-opacity="1"><g transform="translate(294.010075, 293.627266)"><g><path d="M 7.921875 -6.28125 C 9.296875 -6.28125 9.984375 -5.425781 9.984375 -3.71875 L 9.984375 -0.5625 C 9.984375 -0.394531 9.929688 -0.257812 9.828125 -0.15625 C 9.722656 -0.0507812 9.585938 0 9.421875 0 C 9.253906 0 9.117188 -0.0507812 9.015625 -0.15625 C 8.910156 -0.269531 8.859375 -0.40625 8.859375 -0.5625 L 8.859375 -3.703125 C 8.859375 -4.734375 8.425781 -5.25 7.5625 -5.25 C 7.257812 -5.25 6.984375 -5.175781 6.734375 -5.03125 C 6.484375 -4.894531 6.289062 -4.707031 6.15625 -4.46875 C 6.019531 -4.238281 5.953125 -3.984375 5.953125 -3.703125 L 5.953125 -0.5625 C 5.953125 -0.40625 5.894531 -0.269531 5.78125 -0.15625 C 5.675781 -0.0507812 5.546875 0 5.390625 0 C 5.222656 0 5.085938 -0.0507812 4.984375 -0.15625 C 4.878906 -0.257812 4.828125 -0.394531 4.828125 -0.5625 L 4.828125 -3.71875 C 4.828125 -4.175781 4.726562 -4.546875 4.53125 -4.828125 C 4.332031 -5.109375 4.007812 -5.25 3.5625 -5.25 C 3.09375 -5.25 2.707031 -5.097656 2.40625 -4.796875 C 2.101562 -4.503906 1.953125 -4.144531 1.953125 -3.71875 L 1.953125 -0.5625 C 1.953125 -0.40625 1.898438 -0.269531 1.796875 -0.15625 C 1.691406 -0.0507812 1.554688 0 1.390625 0 C 1.222656 0 1.085938 -0.0507812 0.984375 -0.15625 C 0.890625 -0.257812 0.84375 -0.394531 0.84375 -0.5625 L 0.84375 -5.609375 C 0.84375 -5.765625 0.894531 -5.894531 1 -6 C 1.101562 -6.113281 1.234375 -6.171875 1.390625 -6.171875 C 1.554688 -6.171875 1.691406 -6.113281 1.796875 -6 C 1.898438 -5.894531 1.953125 -5.765625 1.953125 -5.609375 L 1.953125 -5.203125 C 2.160156 -5.503906 2.429688 -5.757812 2.765625 -5.96875 C 3.109375 -6.175781 3.484375 -6.28125 3.890625 -6.28125 C 4.859375 -6.28125 5.488281 -5.847656 5.78125 -4.984375 C 5.957031 -5.316406 6.242188 -5.613281 6.640625 -5.875 C 7.046875 -6.144531 7.472656 -6.28125 7.921875 -6.28125 Z M 7.921875 -6.28125 "/></g></g></g><g fill="#219f2e" fill-opacity="1"><g transform="translate(312.491412, 293.627266)"><g><path d="M 6.25 -3.328125 C 6.25 -3.179688 6.191406 -3.054688 6.078125 -2.953125 C 5.972656 -2.859375 5.84375 -2.8125 5.6875 -2.8125 L 1.546875 -2.8125 C 1.597656 -2.238281 1.8125 -1.78125 2.1875 -1.4375 C 2.570312 -1.09375 3.039062 -0.921875 3.59375 -0.921875 C 3.96875 -0.921875 4.269531 -0.972656 4.5 -1.078125 C 4.738281 -1.191406 4.953125 -1.335938 5.140625 -1.515625 C 5.253906 -1.578125 5.367188 -1.609375 5.484375 -1.609375 C 5.609375 -1.609375 5.71875 -1.5625 5.8125 -1.46875 C 5.90625 -1.375 5.953125 -1.265625 5.953125 -1.140625 C 5.953125 -0.972656 5.875 -0.820312 5.71875 -0.6875 C 5.488281 -0.46875 5.179688 -0.273438 4.796875 -0.109375 C 4.421875 0.046875 4.039062 0.125 3.65625 0.125 C 3.019531 0.125 2.457031 -0.0078125 1.96875 -0.28125 C 1.488281 -0.550781 1.113281 -0.925781 0.84375 -1.40625 C 0.582031 -1.882812 0.453125 -2.425781 0.453125 -3.03125 C 0.453125 -3.6875 0.585938 -4.265625 0.859375 -4.765625 C 1.128906 -5.265625 1.488281 -5.644531 1.9375 -5.90625 C 2.382812 -6.175781 2.863281 -6.3125 3.375 -6.3125 C 3.875 -6.3125 4.34375 -6.179688 4.78125 -5.921875 C 5.21875 -5.660156 5.570312 -5.300781 5.84375 -4.84375 C 6.113281 -4.394531 6.25 -3.890625 6.25 -3.328125 Z M 3.375 -5.28125 C 2.925781 -5.28125 2.539062 -5.15625 2.21875 -4.90625 C 1.90625 -4.65625 1.695312 -4.273438 1.59375 -3.765625 L 5.0625 -3.765625 L 5.0625 -3.859375 C 5.019531 -4.273438 4.832031 -4.613281 4.5 -4.875 C 4.164062 -5.144531 3.789062 -5.28125 3.375 -5.28125 Z M 3.375 -5.28125 "/></g></g></g><g fill="#219f2e" fill-opacity="1"><g transform="translate(326.878329, 293.627266)"><g><path d="M 3.984375 -6.3125 C 5.398438 -6.3125 6.109375 -5.460938 6.109375 -3.765625 L 6.109375 -0.5625 C 6.109375 -0.40625 6.050781 -0.269531 5.9375 -0.15625 C 5.832031 -0.0507812 5.695312 0 5.53125 0 C 5.375 0 5.242188 -0.0507812 5.140625 -0.15625 C 5.035156 -0.269531 4.984375 -0.40625 4.984375 -0.5625 L 4.984375 -3.765625 C 4.984375 -4.222656 4.875 -4.585938 4.65625 -4.859375 C 4.445312 -5.140625 4.101562 -5.28125 3.625 -5.28125 C 3.3125 -5.28125 3.023438 -5.207031 2.765625 -5.0625 C 2.515625 -4.925781 2.316406 -4.742188 2.171875 -4.515625 C 2.023438 -4.285156 1.953125 -4.035156 1.953125 -3.765625 L 1.953125 -0.5625 C 1.953125 -0.40625 1.898438 -0.269531 1.796875 -0.15625 C 1.691406 -0.0507812 1.554688 0 1.390625 0 C 1.222656 0 1.085938 -0.0507812 0.984375 -0.15625 C 0.890625 -0.257812 0.84375 -0.394531 0.84375 -0.5625 L 0.84375 -5.609375 C 0.84375 -5.765625 0.894531 -5.894531 1 -6 C 1.101562 -6.113281 1.234375 -6.171875 1.390625 -6.171875 C 1.554688 -6.171875 1.691406 -6.113281 1.796875 -6 C 1.898438 -5.894531 1.953125 -5.765625 1.953125 -5.609375 L 1.953125 -5.203125 C 2.160156 -5.515625 2.445312 -5.773438 2.8125 -5.984375 C 3.175781 -6.203125 3.566406 -6.3125 3.984375 -6.3125 Z M 3.984375 -6.3125 "/></g></g></g><g fill="#219f2e" fill-opacity="1"><g transform="translate(341.488793, 293.627266)"><g><path d="M 2.515625 -5.078125 L 2.515625 -1.5625 C 2.515625 -1.175781 2.691406 -0.984375 3.046875 -0.984375 C 3.097656 -0.984375 3.171875 -0.992188 3.265625 -1.015625 C 3.359375 -1.046875 3.429688 -1.0625 3.484375 -1.0625 C 3.585938 -1.0625 3.675781 -1.015625 3.75 -0.921875 C 3.820312 -0.835938 3.859375 -0.726562 3.859375 -0.59375 C 3.859375 -0.4375 3.757812 -0.296875 3.5625 -0.171875 C 3.375 -0.0546875 3.164062 0 2.9375 0 C 2.675781 0 2.4375 -0.0234375 2.21875 -0.078125 C 2 -0.140625 1.804688 -0.28125 1.640625 -0.5 C 1.472656 -0.726562 1.390625 -1.066406 1.390625 -1.515625 L 1.390625 -5.078125 L 0.703125 -5.078125 C 0.554688 -5.078125 0.429688 -5.125 0.328125 -5.21875 C 0.234375 -5.320312 0.1875 -5.445312 0.1875 -5.59375 C 0.1875 -5.738281 0.234375 -5.859375 0.328125 -5.953125 C 0.429688 -6.054688 0.554688 -6.109375 0.703125 -6.109375 L 1.390625 -6.109375 L 1.390625 -7.09375 C 1.390625 -7.25 1.441406 -7.378906 1.546875 -7.484375 C 1.648438 -7.597656 1.785156 -7.65625 1.953125 -7.65625 C 2.109375 -7.65625 2.238281 -7.597656 2.34375 -7.484375 C 2.457031 -7.378906 2.515625 -7.25 2.515625 -7.09375 L 2.515625 -6.109375 L 3.484375 -6.109375 C 3.640625 -6.109375 3.765625 -6.054688 3.859375 -5.953125 C 3.953125 -5.859375 4 -5.734375 4 -5.578125 C 4 -5.429688 3.953125 -5.3125 3.859375 -5.21875 C 3.765625 -5.125 3.640625 -5.078125 3.484375 -5.078125 Z M 2.515625 -5.078125 "/></g></g></g></svg>