<svg width="499" height="363" viewBox="0 0 499 363" fill="none" xmlns="http://www.w3.org/2000/svg">
<path d="M480.005 93.7444L480.005 17.5971C479.995 12.2443 479.99 9.57079 478.359 7.91058C476.728 6.25038 474.112 6.25514 468.873 6.26469L334.984 6.26443" stroke="#EAEAE3" stroke-width="12" stroke-linejoin="round"/>
<path d="M327.582 6.26717L327.592 0.267171L327.581 0.267173L327.582 6.26717ZM316.232 17.3616L310.232 17.3628L310.232 17.3634L316.232 17.3616ZM310.246 66.0018C310.247 69.3155 312.935 72.001 316.248 72C319.562 71.999 322.247 69.3119 322.246 65.9982L310.246 66.0018ZM403.739 0.390618L327.592 0.267181L327.573 12.2672L403.72 12.3906L403.739 0.390618ZM327.581 0.267173C325.071 0.267676 322.598 0.25598 320.571 0.52287C318.384 0.810785 315.835 1.51565 313.699 3.60336L322.087 12.1849C321.614 12.6473 321.233 12.5392 322.137 12.4202C323.2 12.2802 324.741 12.2677 327.584 12.2672L327.581 0.267173ZM313.699 3.60336C311.544 5.71 310.797 8.25637 310.494 10.4589C310.217 12.4732 310.231 14.9215 310.232 17.3628L322.232 17.3604C322.231 14.5718 322.244 13.099 322.383 12.0934C322.495 11.276 322.579 11.7036 322.087 12.1849L313.699 3.60336ZM310.232 17.3634L310.246 66.0018L322.246 65.9982L322.232 17.3598L310.232 17.3634Z" fill="#EAEAE3"/>
<path d="M422.997 115.269L472.769 114.809C476.268 114.774 478.015 114.757 479.098 114.337C480.181 113.916 480.175 113.258 480.162 111.94L479.986 78.2542" stroke="#EAEAE3" stroke-width="12" stroke-linejoin="round"/>
<path d="M425.254 115.234L425.301 121.233L425.301 121.233L425.254 115.234ZM409.564 120.556C408.453 123.678 410.083 127.109 413.205 128.22C416.326 129.331 419.758 127.701 420.869 124.579L409.564 120.556ZM433.193 109.172L425.208 109.234L425.301 121.233L433.285 121.172L433.193 109.172ZM425.208 109.234C424.978 109.235 425.023 109.226 424.45 109.192C423.919 109.16 422.837 109.114 421.547 109.498L424.967 121C424.809 121.047 424.646 121.085 424.483 121.113C424.32 121.141 424.174 121.157 424.051 121.164C423.93 121.172 423.837 121.172 423.784 121.172C423.735 121.171 423.712 121.169 423.737 121.171C423.768 121.172 423.806 121.175 423.902 121.182C423.986 121.188 424.108 121.197 424.244 121.205C424.528 121.222 424.882 121.237 425.301 121.233L425.208 109.234ZM421.547 109.498C420.6 109.779 419.874 110.272 419.873 110.272C419.646 110.416 419.432 110.566 419.262 110.688C418.911 110.941 418.51 111.249 418.103 111.572C417.278 112.226 416.263 113.07 415.26 113.946C414.266 114.813 413.213 115.773 412.341 116.649C411.911 117.081 411.456 117.563 411.054 118.048C410.815 118.337 410.014 119.291 409.564 120.556L420.869 124.579C420.66 125.165 420.411 125.534 420.371 125.595C420.298 125.705 420.261 125.745 420.298 125.699C420.373 125.609 420.547 125.415 420.849 125.111C421.442 124.515 422.263 123.761 423.15 122.987C424.027 122.222 424.896 121.5 425.557 120.976C425.893 120.71 426.135 120.526 426.276 120.425C426.353 120.37 426.347 120.376 426.285 120.416C426.255 120.434 426.159 120.495 426.016 120.571C425.943 120.61 425.541 120.829 424.967 121L421.547 109.498Z" fill="#EAEAE3"/>
<path d="M346 32H436" stroke="#EAEAE3" stroke-width="12" stroke-linecap="round"/>
<path d="M347 58H399" stroke="#EAEAE3" stroke-width="12" stroke-linecap="round"/>
<path d="M492.775 231.744L492.775 155.597C492.765 150.244 492.761 147.571 491.13 145.911C489.499 144.25 486.882 144.255 481.643 144.265L354.5 144.265" stroke="#EAEAE3" stroke-width="12" stroke-linejoin="round"/>
<path d="M435.767 253.269L485.539 252.809C489.038 252.774 490.786 252.757 491.869 252.337C492.952 251.916 492.945 251.258 492.932 249.94L492.757 216.254" stroke="#EAEAE3" stroke-width="12" stroke-linejoin="round"/>
<path d="M438.024 253.233L438.07 259.232L438.07 259.232L438.024 253.233ZM405.847 275.988C404.736 279.11 406.366 282.542 409.488 283.653C412.61 284.764 416.042 283.134 417.153 280.012L405.847 275.988ZM445.962 247.171L437.978 247.233L438.07 259.232L446.054 259.171L445.962 247.171ZM437.978 247.233C437.748 247.235 437.792 247.225 437.219 247.191C436.689 247.159 435.607 247.113 434.316 247.497L437.737 258.999C437.578 259.046 437.416 259.084 437.252 259.112C437.09 259.14 436.944 259.156 436.82 259.164C436.699 259.171 436.606 259.171 436.554 259.171C436.504 259.17 436.481 259.168 436.507 259.17C436.537 259.171 436.575 259.174 436.672 259.181C436.756 259.187 436.878 259.196 437.014 259.204C437.298 259.221 437.652 259.236 438.07 259.232L437.978 247.233ZM434.316 247.497C433.65 247.695 433.172 247.967 433.032 248.047C432.825 248.165 432.663 248.274 432.571 248.338C432.384 248.467 432.234 248.585 432.153 248.65C431.981 248.788 431.815 248.933 431.687 249.046C431.418 249.284 431.087 249.59 430.725 249.929C429.99 250.618 428.996 251.573 427.843 252.693C425.53 254.94 422.506 257.923 419.49 260.939C416.476 263.951 413.446 267.019 411.129 269.431C409.975 270.632 408.964 271.704 408.211 272.54C407.841 272.951 407.485 273.357 407.192 273.718C407.049 273.894 406.871 274.12 406.698 274.367C406.634 274.458 406.161 275.106 405.847 275.988L417.153 280.012C416.977 280.505 416.777 280.85 416.712 280.961C416.624 281.111 416.552 281.215 416.524 281.255C416.468 281.335 416.449 281.354 416.504 281.286C416.608 281.158 416.807 280.927 417.125 280.574C417.75 279.88 418.657 278.915 419.781 277.745C422.019 275.417 424.985 272.412 427.973 269.426C430.958 266.442 433.941 263.5 436.205 261.3C437.34 260.198 438.276 259.299 438.936 258.68C439.271 258.365 439.503 258.153 439.64 258.032C439.715 257.965 439.713 257.969 439.663 258.01C439.643 258.026 439.544 258.106 439.396 258.207C439.324 258.258 439.18 258.355 438.986 258.465C438.861 258.537 438.395 258.803 437.737 258.999L434.316 247.497Z" fill="#EAEAE3"/>
<path d="M383.722 252.233L383.718 246.233L383.743 246.233L383.768 246.234L383.722 252.233ZM415.899 274.989C417.01 278.111 415.38 281.542 412.258 282.654C409.136 283.765 405.704 282.134 404.593 279.013L415.899 274.989ZM358.497 246.249L383.718 246.233L383.726 258.233L358.504 258.249L358.497 246.249ZM383.768 246.234C383.998 246.235 383.954 246.226 384.527 246.192C385.057 246.16 386.139 246.114 387.43 246.498L384.009 258C384.168 258.047 384.33 258.085 384.494 258.113C384.656 258.141 384.802 258.156 384.926 258.164C385.047 258.172 385.14 258.172 385.192 258.172C385.242 258.171 385.265 258.169 385.239 258.17C385.209 258.172 385.171 258.175 385.074 258.182C384.99 258.188 384.868 258.197 384.732 258.205C384.448 258.222 384.094 258.236 383.676 258.233L383.768 246.234ZM387.43 246.498C388.096 246.696 388.574 246.968 388.714 247.048C388.921 247.166 389.083 247.275 389.175 247.339C389.362 247.468 389.512 247.586 389.592 247.651C389.765 247.789 389.931 247.934 390.059 248.046C390.328 248.285 390.659 248.59 391.021 248.93C391.756 249.619 392.75 250.574 393.903 251.694C396.216 253.941 399.24 256.924 402.256 259.939C405.27 262.952 408.3 266.02 410.617 268.432C411.771 269.632 412.782 270.705 413.535 271.541C413.905 271.952 414.261 272.358 414.554 272.719C414.697 272.895 414.875 273.121 415.048 273.368C415.112 273.459 415.585 274.107 415.899 274.989L404.593 279.013C404.769 279.506 404.969 279.851 405.034 279.962C405.122 280.112 405.194 280.216 405.222 280.256C405.278 280.336 405.297 280.355 405.242 280.287C405.138 280.159 404.939 279.928 404.621 279.575C403.996 278.881 403.089 277.916 401.965 276.746C399.727 274.417 396.761 271.413 393.773 268.427C390.788 265.443 387.805 262.501 385.541 260.301C384.406 259.198 383.469 258.3 382.81 257.681C382.475 257.366 382.243 257.154 382.106 257.033C382.03 256.966 382.032 256.97 382.083 257.011C382.103 257.027 382.202 257.106 382.35 257.208C382.422 257.258 382.566 257.356 382.76 257.466C382.885 257.538 383.351 257.804 384.009 258L387.43 246.498Z" fill="#EAEAE3"/>
<path d="M227.35 172.744L227.35 96.5971C227.36 91.2443 227.364 88.5708 228.995 86.9106C230.626 85.2504 233.243 85.2551 238.482 85.2647L372.37 85.2644" stroke="#EAEAE3" stroke-width="12" stroke-linejoin="round"/>
<path d="M379.772 85.2671L379.762 79.2671L379.773 79.2671L379.772 85.2671ZM391.123 96.3616L385.123 96.3616L385.123 96.3604L391.123 96.3616ZM397.123 119C397.123 122.314 394.436 125 391.123 125C387.809 125 385.123 122.314 385.123 119L397.123 119ZM303.615 79.3905L379.762 79.2671L379.782 91.2671L303.635 91.3905L303.615 79.3905ZM379.773 79.2671C382.284 79.2676 384.756 79.2559 386.784 79.5228C388.971 79.8107 391.519 80.5156 393.655 82.6033L385.267 91.1848C385.74 91.6472 386.121 91.5391 385.217 91.4201C384.154 91.2802 382.613 91.2677 379.771 91.2671L379.773 79.2671ZM393.655 82.6033C395.811 84.7099 396.557 87.2563 396.86 89.4589C397.137 91.4731 397.123 93.9214 397.123 96.3628L385.123 96.3604C385.123 93.5717 385.11 92.099 384.972 91.0933C384.86 90.2759 384.775 90.7035 385.267 91.1848L393.655 82.6033ZM397.123 96.3616L397.123 119L385.123 119L385.123 96.3616L397.123 96.3616Z" fill="#EAEAE3"/>
<path d="M284.358 194.269L234.586 193.809C231.087 193.774 229.339 193.757 228.256 193.336C227.173 192.916 227.18 192.258 227.193 190.94L227.368 157.254" stroke="#EAEAE3" stroke-width="12" stroke-linejoin="round"/>
<path d="M282.101 194.234L282.054 200.234L282.054 200.234L282.101 194.234ZM303.653 204.488C304.764 207.61 303.134 211.042 300.012 212.153C296.89 213.264 293.459 211.634 292.348 208.512L303.653 204.488ZM274.162 188.173L282.147 188.234L282.054 200.234L274.07 200.172L274.162 188.173ZM282.147 188.234C282.377 188.236 282.332 188.226 282.905 188.192C283.436 188.161 284.518 188.114 285.808 188.498L282.388 200C282.546 200.047 282.709 200.085 282.872 200.114C283.035 200.142 283.181 200.157 283.304 200.165C283.425 200.173 283.518 200.173 283.571 200.172C283.62 200.171 283.643 200.169 283.618 200.171C283.587 200.173 283.549 200.175 283.453 200.182C283.369 200.188 283.247 200.197 283.111 200.205C282.827 200.222 282.473 200.237 282.054 200.234L282.147 188.234ZM285.808 188.498C286.374 188.666 286.791 188.883 286.915 188.949C287.1 189.045 287.249 189.135 287.341 189.192C287.526 189.306 287.688 189.417 287.795 189.493C288.02 189.652 288.264 189.834 288.493 190.01C288.963 190.371 289.562 190.849 290.227 191.39C291.566 192.479 293.282 193.914 294.991 195.381C296.691 196.842 298.433 198.378 299.803 199.659C300.48 200.292 301.129 200.921 301.654 201.478C301.912 201.752 302.206 202.077 302.478 202.422C302.612 202.59 303.261 203.386 303.653 204.488L292.348 208.512C292.552 209.087 292.798 209.475 292.871 209.589C292.972 209.746 293.048 209.843 293.064 209.863C293.096 209.903 293.064 209.859 292.923 209.71C292.651 209.421 292.212 208.99 291.607 208.424C290.414 207.308 288.816 205.897 287.171 204.484C285.535 203.078 283.901 201.713 282.655 200.7C282.027 200.189 281.526 199.79 281.183 199.527C281.005 199.39 280.914 199.324 280.888 199.306C280.871 199.294 280.928 199.335 281.031 199.399C281.082 199.43 281.196 199.499 281.351 199.581C281.446 199.631 281.839 199.837 282.388 200L285.808 188.498Z" fill="#EAEAE3"/>
<path d="M343.939 112.94L338.432 118.194C335.09 114.863 330.685 112.969 326.09 112.842L325.859 109.075V109.05V105.267C329.233 105.311 332.567 106.011 335.67 107.328C338.772 108.644 341.581 110.552 343.939 112.94ZM343.939 112.94L344.131 112.757L343.939 112.94C344.001 113.003 344.063 113.066 344.124 113.129C344.124 113.13 344.124 113.13 344.124 113.13C344.125 113.13 344.125 113.13 344.125 113.131L344.316 112.947L344.125 113.131C344.187 113.194 344.247 113.257 344.308 113.321M343.939 112.94L344.308 113.321M344.308 113.321L344.499 113.138M344.308 113.321C344.308 113.321 344.308 113.321 344.308 113.321M344.308 113.321L338.609 118.762M344.499 113.138L344.499 113.138L344.316 112.946L344.499 113.138ZM344.499 113.138L344.308 113.321M344.308 113.321L338.799 118.577M309.529 185.14L309.53 185.141L309.449 185.196L309.429 185.209L309.449 185.196L309.529 185.14ZM309.529 185.14L309.532 185.138L309.381 184.921L309.378 184.923M309.529 185.14L309.528 185.138L309.378 184.923M309.378 184.923L307.318 181.953M309.378 184.923L309.303 184.975L309.298 184.978L309.205 185.039L309.205 185.039L309.198 185.044L309.169 185.065L309.161 185.07L307.155 182.184L307.21 182.107L307.211 182.105L307.211 182.104L307.318 181.953M307.318 181.953L307.318 181.953L307.212 181.801L307.318 181.953ZM306.993 182.415L307.155 182.184L309.159 185.071C309.086 185.121 309.012 185.167 308.936 185.211M306.993 182.415L306.993 182.415L306.993 182.415M306.993 182.415L306.993 182.416L306.993 182.415M306.993 182.415L308.936 185.211M306.993 182.415L306.832 182.183L304.815 185.059L304.818 185.063C304.889 185.111 304.962 185.157 305.036 185.201M306.993 182.415L305.036 185.201M305.036 185.201L304.883 185.419C304.884 185.419 304.885 185.42 304.886 185.42L305.038 185.202C305.038 185.202 305.037 185.201 305.036 185.201ZM308.936 185.211C308.936 185.212 308.935 185.212 308.934 185.213L309.085 185.431C309.086 185.431 309.087 185.43 309.088 185.43L308.936 185.211ZM343.817 131.953C343.817 132.042 343.816 132.13 343.815 132.219L344.082 131.954L343.817 131.953ZM343.817 131.953L344.056 131.837L343.983 131.688M343.817 131.953H344.082C344.083 131.865 344.082 131.777 344.081 131.688H343.983M343.983 131.688H343.817V131.821C343.816 131.658 343.814 131.494 343.809 131.331L343.983 131.688ZM309.03 116.649C308.401 115.768 307.722 114.925 306.995 114.126L309.03 116.649ZM309.03 116.649C308.97 116.618 308.909 116.587 308.847 116.558C308.348 116.324 307.809 116.188 307.259 116.155L309.03 116.649ZM338.609 118.762L338.612 118.76L338.801 118.579C338.801 118.578 338.8 118.578 338.799 118.577M338.609 118.762C338.597 118.749 338.584 118.735 338.571 118.722M338.609 118.762L338.571 118.722M338.799 118.577L338.61 118.758L338.608 118.76L338.571 118.722M338.799 118.577C338.74 118.513 338.679 118.45 338.618 118.387C338.618 118.386 338.617 118.385 338.616 118.385L338.619 118.383L338.571 118.722M325.328 105.275C325.251 105.28 325.173 105.285 325.096 105.29L325.328 105.275ZM325.328 105.275V109.05V105.275ZM313.131 109.08C316.757 106.891 320.859 105.592 325.096 105.29L325.328 109.092V112.864C322.442 113.118 319.651 114.021 317.169 115.508L313.131 109.08ZM352 131.953V131.821C352 131.777 352 131.732 351.999 131.688H351.734C351.735 131.776 351.735 131.865 351.735 131.953V131.953C351.735 132.042 351.734 132.13 351.733 132.219H351.998C351.999 132.13 352 132.042 352 131.953ZM312.679 109.359L316.718 115.787C314.227 117.369 312.102 119.514 310.507 122.069L307.949 120.086L310.488 118.584C310.543 118.577 310.602 118.562 310.646 118.535C310.698 118.466 310.728 118.349 310.726 118.314C310.724 118.298 310.718 118.273 310.716 118.264C310.711 118.249 310.706 118.238 310.705 118.235C310.703 118.231 310.701 118.227 310.7 118.225L310.696 118.217L310.692 118.21L310.688 118.203C310.684 118.197 310.678 118.186 310.669 118.172C310.669 118.171 310.668 118.171 310.668 118.17L310.533 117.941L310.525 117.946C309.602 116.442 308.54 115.033 307.357 113.735C308.934 112.067 310.721 110.595 312.679 109.359ZM307.456 176.956C313.539 172.519 319.332 167.704 324.798 162.538L324.799 162.538C329.806 157.772 334.706 152.435 338.326 147.026C341.919 141.661 343.999 136.609 344.08 132.219L307.456 176.956ZM308.913 123.744C308.407 124.03 307.843 124.199 307.264 124.239V120.809L310.208 122.55C309.876 123.04 309.433 123.45 308.913 123.744ZM288.659 109.066L288.892 105.29C293.13 105.591 297.234 106.891 300.861 109.08L296.815 115.508C294.334 114.022 291.542 113.118 288.656 112.864V109.125L288.659 109.066ZM308.957 178.691L306.995 181.488L305.046 178.679L305.246 178.542L305.249 178.54C305.837 178.124 306.423 177.706 307.006 177.283C307.586 177.708 308.169 178.129 308.754 178.547C308.822 178.595 308.889 178.643 308.957 178.691ZM288.125 105.267V109.108L287.894 112.844C285.628 112.914 283.393 113.406 281.307 114.294C279.151 115.213 277.197 116.538 275.553 118.195L270.046 112.94C274.855 108.102 281.333 105.337 288.125 105.267ZM269.676 113.321L275.184 118.576C271.877 122.073 269.974 126.762 269.908 131.688H262.254C262.305 124.859 264.953 118.3 269.676 113.321ZM262.255 132.219H269.908C269.99 136.53 272.063 141.542 275.658 146.896C279.282 152.293 284.186 157.646 289.197 162.432L289.198 162.433C293.585 166.592 298.18 170.531 302.965 174.235C304.15 175.157 305.348 176.063 306.556 176.953C306.021 177.34 305.483 177.724 304.944 178.106C304.943 178.106 304.943 178.106 304.943 178.106L304.622 178.327L304.622 178.327L304.616 178.332L304.557 178.375L304.413 178.446V178.611V178.615V178.698L304.46 178.766L306.67 181.951L304.593 184.908C297.29 179.724 290.368 174.032 283.88 167.876C278.659 162.893 273.335 157.113 269.287 151.084L269.287 151.084C265.338 145.208 262.335 138.692 262.255 132.219ZM302.112 120.137C300.739 118.423 299.101 116.952 297.267 115.787L302.112 120.137ZM310.059 118.216L307.495 119.734L307.264 119.555V116.688C307.734 116.72 308.195 116.839 308.622 117.039C309.129 117.277 309.577 117.623 309.932 118.052L309.932 118.053C309.977 118.107 310.02 118.164 310.059 118.216ZM305.373 117.04C305.799 116.84 306.259 116.72 306.729 116.688V119.141L304.621 117.507C304.851 117.323 305.103 117.166 305.373 117.04ZM304.225 117.871L306.729 119.812V119.877L303.933 118.225C303.973 118.169 304.018 118.11 304.065 118.052C304.116 117.99 304.17 117.93 304.225 117.871ZM303.45 118.556L306.47 120.341L303.534 122.079L300.43 114.93L303.744 117.498C303.601 117.721 303.462 117.945 303.326 118.172L303.327 118.173C303.32 118.184 303.314 118.193 303.311 118.199L303.307 118.205L303.304 118.21L303.301 118.215C303.301 118.216 303.3 118.218 303.298 118.221C303.296 118.224 303.294 118.228 303.292 118.233L303.286 118.247C303.284 118.254 303.278 118.272 303.275 118.284C303.271 118.308 303.276 118.402 303.3 118.467C303.338 118.507 303.393 118.537 303.45 118.556ZM303.999 122.834C303.924 122.742 303.853 122.647 303.786 122.549L306.729 120.808V124.239C305.142 124.134 304.242 123.125 303.999 122.834ZM304.035 117.053L301.469 115.064L304.035 117.053ZM297.04 115.645C297.04 115.645 297.04 115.645 297.04 115.645L296.901 115.87L297.04 115.645C297.04 115.645 297.04 115.645 297.04 115.645ZM338.425 118.568L338.426 118.57L338.425 118.568ZM309.662 184.727L309.66 184.728L309.813 184.945L309.662 184.727ZM330.104 167.993C330.104 167.993 330.104 167.993 330.104 167.994L330.287 168.186L330.104 167.993Z" fill="#EAEAE3" stroke="#EAEAE3" stroke-width="0.530668"/>
<path d="M411.985 238.969C433.515 238.969 450.969 221.515 450.969 199.985C450.969 178.454 433.515 161 411.985 161C390.454 161 373 178.454 373 199.985C373 221.515 390.454 238.969 411.985 238.969Z" stroke="#EAEAE3" stroke-width="12" stroke-linecap="round"/>
<path d="M426 203C426 210.18 419.732 216 412 216C404.268 216 398 210.18 398 203" stroke="#EAEAE3" stroke-width="12" stroke-linecap="round"/>
<path d="M54.455 322V122.48H98.535V220.355C99.405 217.648 101.628 214.7 105.205 211.51C108.878 208.223 113.663 205.42 119.56 203.1C125.553 200.683 132.32 199.475 139.86 199.475C151.46 199.475 161.513 202.327 170.02 208.03C178.527 213.733 185.1 221.37 189.74 230.94C194.38 240.413 196.7 250.95 196.7 262.55C196.7 274.15 194.38 284.735 189.74 294.305C185.1 303.778 178.527 311.367 170.02 317.07C161.513 322.677 151.46 325.48 139.86 325.48C133.48 325.48 127.438 324.32 121.735 322C116.128 319.777 111.247 316.925 107.09 313.445C103.03 309.868 100.033 306.292 98.1 302.715V322H54.455ZM153.49 262.55C153.49 257.137 152.282 252.303 149.865 248.05C147.545 243.7 144.307 240.317 140.15 237.9C136.09 235.387 131.498 234.13 126.375 234.13C121.058 234.13 116.273 235.387 112.02 237.9C107.863 240.317 104.577 243.7 102.16 248.05C99.7433 252.303 98.535 257.137 98.535 262.55C98.535 267.963 99.7433 272.845 102.16 277.195C104.577 281.448 107.863 284.783 112.02 287.2C116.273 289.617 121.058 290.825 126.375 290.825C131.498 290.825 136.09 289.617 140.15 287.2C144.307 284.783 147.545 281.448 149.865 277.195C152.282 272.845 153.49 267.963 153.49 262.55ZM226.162 271.83C226.452 276.083 227.806 279.853 230.222 283.14C232.639 286.427 235.974 289.037 240.227 290.97C244.577 292.807 249.701 293.725 255.597 293.725C261.204 293.725 266.231 293.145 270.677 291.985C275.221 290.825 279.136 289.375 282.422 287.635C285.806 285.895 288.416 284.107 290.252 282.27L307.362 309.53C304.946 312.14 301.514 314.702 297.067 317.215C292.717 319.632 286.966 321.613 279.812 323.16C272.659 324.707 263.621 325.48 252.697 325.48C239.551 325.48 227.854 323.015 217.607 318.085C207.361 313.155 199.289 305.905 193.392 296.335C187.496 286.765 184.547 275.068 184.547 261.245C184.547 249.645 187.061 239.205 192.087 229.925C197.211 220.548 204.606 213.153 214.272 207.74C223.939 202.23 235.587 199.475 249.217 199.475C262.171 199.475 273.384 201.843 282.857 206.58C292.427 211.317 299.774 218.373 304.897 227.75C310.117 237.03 312.727 248.63 312.727 262.55C312.727 263.323 312.679 264.87 312.582 267.19C312.582 269.51 312.486 271.057 312.292 271.83H226.162ZM271.257 248.775C271.161 245.682 270.339 242.637 268.792 239.64C267.246 236.547 264.926 234.033 261.832 232.1C258.739 230.07 254.776 229.055 249.942 229.055C245.109 229.055 241.001 230.022 237.617 231.955C234.331 233.792 231.817 236.208 230.077 239.205C228.337 242.202 227.371 245.392 227.177 248.775H271.257ZM299.138 202.955H318.858V171.49C318.858 159.89 321.323 150.223 326.253 142.49C331.183 134.757 337.563 128.908 345.393 124.945C353.223 120.982 361.343 119 369.753 119C380.193 119 388.12 120.402 393.533 123.205C399.043 126.008 402.523 128.087 403.973 129.44L387.153 161.775C386.67 161.002 385.461 159.89 383.528 158.44C381.595 156.99 379.033 156.265 375.843 156.265C373.813 156.265 371.783 156.797 369.753 157.86C367.723 158.923 366.031 160.808 364.678 163.515C363.421 166.222 362.793 170.185 362.793 175.405V202.955H392.228V239.205H362.793V322H318.858V239.205H299.138V202.955Z" fill="#219F2E"/>
<path d="M0.945886 357.672C0.839219 357.523 0.791219 357.331 0.801886 357.096C0.812553 356.861 0.951219 356.659 1.21789 356.488C1.38855 356.381 1.56989 356.339 1.76189 356.36C1.95389 356.371 2.14055 356.467 2.32189 356.648C2.63122 356.957 2.95655 357.197 3.29789 357.368C3.63922 357.539 4.06589 357.624 4.57789 357.624C4.73789 357.613 4.91389 357.592 5.10589 357.56C5.29789 357.517 5.46322 357.432 5.60189 357.304C5.75122 357.165 5.82589 356.957 5.82589 356.68C5.82589 356.445 5.74589 356.259 5.58589 356.12C5.42589 355.981 5.21255 355.864 4.94589 355.768C4.68989 355.672 4.40189 355.581 4.08189 355.496C3.75122 355.4 3.40989 355.293 3.05789 355.176C2.71655 355.059 2.40189 354.909 2.11389 354.728C1.82589 354.536 1.59122 354.285 1.40989 353.976C1.22855 353.667 1.13789 353.277 1.13789 352.808C1.13789 352.275 1.28722 351.821 1.58589 351.448C1.88455 351.075 2.26855 350.787 2.73789 350.584C3.21789 350.381 3.71922 350.28 4.24189 350.28C4.57255 350.28 4.91922 350.323 5.28189 350.408C5.64455 350.483 5.99122 350.611 6.32189 350.792C6.65255 350.963 6.92989 351.192 7.15389 351.48C7.27122 351.64 7.34055 351.832 7.36189 352.056C7.38322 352.28 7.28189 352.483 7.05789 352.664C6.89789 352.792 6.71122 352.851 6.49789 352.84C6.28455 352.819 6.10855 352.744 5.96989 352.616C5.78855 352.381 5.54322 352.195 5.23389 352.056C4.93522 351.917 4.58855 351.848 4.19389 351.848C4.03389 351.848 3.85789 351.869 3.66589 351.912C3.48455 351.944 3.32455 352.024 3.18589 352.152C3.04722 352.269 2.97789 352.461 2.97789 352.728C2.97789 352.973 3.05789 353.171 3.21789 353.32C3.37789 353.459 3.59122 353.576 3.85789 353.672C4.13522 353.757 4.42855 353.843 4.73789 353.928C5.05789 354.013 5.38322 354.115 5.71389 354.232C6.04455 354.349 6.34855 354.504 6.62589 354.696C6.90322 354.888 7.12722 355.139 7.29789 355.448C7.46855 355.747 7.55389 356.131 7.55389 356.6C7.55389 357.144 7.39389 357.608 7.07389 357.992C6.75389 358.376 6.35389 358.669 5.87389 358.872C5.39389 359.064 4.90322 359.16 4.40189 359.16C3.77255 359.16 3.14322 359.053 2.51389 358.84C1.88455 358.616 1.36189 358.227 0.945886 357.672ZM29.7846 354.728C29.7846 355.603 29.5873 356.376 29.1926 357.048C28.8086 357.709 28.286 358.227 27.6246 358.6C26.974 358.973 26.2433 359.16 25.4326 359.16C24.622 359.16 23.886 358.973 23.2246 358.6C22.574 358.227 22.0513 357.709 21.6566 357.048C21.2726 356.376 21.0806 355.603 21.0806 354.728C21.0806 353.853 21.2726 353.085 21.6566 352.424C22.0513 351.752 22.574 351.229 23.2246 350.856C23.886 350.472 24.622 350.28 25.4326 350.28C26.2433 350.28 26.974 350.472 27.6246 350.856C28.286 351.229 28.8086 351.752 29.1926 352.424C29.5873 353.085 29.7846 353.853 29.7846 354.728ZM27.8646 354.728C27.8646 354.184 27.7526 353.715 27.5286 353.32C27.3153 352.915 27.022 352.6 26.6486 352.376C26.286 352.152 25.8806 352.04 25.4326 352.04C24.9846 352.04 24.574 352.152 24.2006 352.376C23.838 352.6 23.5446 352.915 23.3206 353.32C23.1073 353.715 23.0006 354.184 23.0006 354.728C23.0006 355.261 23.1073 355.731 23.3206 356.136C23.5446 356.531 23.838 356.84 24.2006 357.064C24.574 357.288 24.9846 357.4 25.4326 357.4C25.8806 357.4 26.286 357.288 26.6486 357.064C27.022 356.84 27.3153 356.531 27.5286 356.136C27.7526 355.731 27.8646 355.261 27.8646 354.728ZM47.593 350.28C48.201 350.28 48.729 350.344 49.177 350.472C49.6357 350.6 49.9877 350.781 50.233 351.016C50.489 351.24 50.617 351.512 50.617 351.832C50.617 352.045 50.553 352.248 50.425 352.44C50.297 352.621 50.1103 352.712 49.865 352.712C49.6943 352.712 49.5503 352.691 49.433 352.648C49.3263 352.595 49.2303 352.531 49.145 352.456C49.0597 352.381 48.9583 352.312 48.841 352.248C48.7343 352.184 48.569 352.136 48.345 352.104C48.1317 352.061 47.9717 352.04 47.865 352.04C47.321 352.04 46.857 352.157 46.473 352.392C46.0997 352.627 45.8117 352.947 45.609 353.352C45.4063 353.747 45.305 354.205 45.305 354.728C45.305 355.24 45.4063 355.699 45.609 356.104C45.8223 356.499 46.1103 356.813 46.473 357.048C46.8463 357.283 47.273 357.4 47.753 357.4C48.0197 357.4 48.249 357.384 48.441 357.352C48.633 357.32 48.793 357.272 48.921 357.208C49.0703 357.123 49.2037 357.032 49.321 356.936C49.4383 356.84 49.6143 356.792 49.849 356.792C50.1263 356.792 50.3397 356.883 50.489 357.064C50.6383 357.235 50.713 357.448 50.713 357.704C50.713 357.971 50.5637 358.216 50.265 358.44C49.9663 358.653 49.5717 358.829 49.081 358.968C48.601 359.096 48.0783 359.16 47.513 359.16C46.6703 359.16 45.9397 358.968 45.321 358.584C44.7023 358.189 44.2223 357.656 43.881 356.984C43.5503 356.312 43.385 355.56 43.385 354.728C43.385 353.853 43.561 353.085 43.913 352.424C44.2757 351.752 44.7717 351.229 45.401 350.856C46.041 350.472 46.7717 350.28 47.593 350.28ZM66.2255 358.024C66.2255 358.301 66.1348 358.536 65.9535 358.728C65.7722 358.909 65.5428 359 65.2655 359C64.9882 359 64.7588 358.909 64.5775 358.728C64.3962 358.536 64.3055 358.301 64.3055 358.024V351.416C64.3055 351.139 64.3962 350.909 64.5775 350.728C64.7588 350.536 64.9882 350.44 65.2655 350.44C65.5428 350.44 65.7722 350.536 65.9535 350.728C66.1348 350.909 66.2255 351.139 66.2255 351.416V358.024ZM65.2495 349.4C64.8868 349.4 64.6308 349.341 64.4815 349.224C64.3322 349.107 64.2575 348.899 64.2575 348.6V348.296C64.2575 347.987 64.3375 347.779 64.4975 347.672C64.6682 347.555 64.9242 347.496 65.2655 347.496C65.6388 347.496 65.9002 347.555 66.0495 347.672C66.1988 347.789 66.2735 347.997 66.2735 348.296V348.6C66.2735 348.909 66.1935 349.123 66.0335 349.24C65.8735 349.347 65.6122 349.4 65.2495 349.4ZM87.5268 350.28C87.8041 350.28 88.0334 350.371 88.2148 350.552C88.3961 350.733 88.4868 350.968 88.4868 351.256V358.024C88.4868 358.301 88.3961 358.536 88.2148 358.728C88.0334 358.909 87.8041 359 87.5268 359C87.2494 359 87.0201 358.909 86.8388 358.728C86.6574 358.536 86.5668 358.301 86.5668 358.024V357.24L86.9188 357.384C86.9188 357.523 86.8441 357.693 86.6948 357.896C86.5454 358.088 86.3428 358.28 86.0868 358.472C85.8308 358.664 85.5268 358.829 85.1748 358.968C84.8334 359.096 84.4601 359.16 84.0548 359.16C83.3188 359.16 82.6521 358.973 82.0548 358.6C81.4574 358.216 80.9828 357.693 80.6308 357.032C80.2894 356.36 80.1188 355.592 80.1188 354.728C80.1188 353.853 80.2894 353.085 80.6308 352.424C80.9828 351.752 81.4521 351.229 82.0388 350.856C82.6254 350.472 83.2761 350.28 83.9908 350.28C84.4494 350.28 84.8708 350.349 85.2548 350.488C85.6388 350.627 85.9694 350.803 86.2468 351.016C86.5348 351.229 86.7534 351.448 86.9028 351.672C87.0628 351.885 87.1428 352.067 87.1428 352.216L86.5668 352.424V351.256C86.5668 350.979 86.6574 350.749 86.8388 350.568C87.0201 350.376 87.2494 350.28 87.5268 350.28ZM84.2948 357.4C84.7641 357.4 85.1748 357.283 85.5268 357.048C85.8788 356.813 86.1508 356.493 86.3428 356.088C86.5454 355.683 86.6468 355.229 86.6468 354.728C86.6468 354.216 86.5454 353.757 86.3428 353.352C86.1508 352.947 85.8788 352.627 85.5268 352.392C85.1748 352.157 84.7641 352.04 84.2948 352.04C83.8361 352.04 83.4308 352.157 83.0788 352.392C82.7268 352.627 82.4494 352.947 82.2468 353.352C82.0548 353.757 81.9588 354.216 81.9588 354.728C81.9588 355.229 82.0548 355.683 82.2468 356.088C82.4494 356.493 82.7268 356.813 83.0788 357.048C83.4308 357.283 83.8361 357.4 84.2948 357.4ZM104.966 358.024C104.966 358.301 104.87 358.536 104.678 358.728C104.496 358.909 104.267 359 103.99 359C103.723 359 103.499 358.909 103.318 358.728C103.136 358.536 103.046 358.301 103.046 358.024V348.136C103.046 347.859 103.136 347.629 103.318 347.448C103.51 347.256 103.744 347.16 104.022 347.16C104.299 347.16 104.523 347.256 104.694 347.448C104.875 347.629 104.966 347.859 104.966 348.136V358.024ZM140.819 350.28C141.672 350.28 142.301 350.488 142.707 350.904C143.112 351.309 143.379 351.837 143.507 352.488L143.235 352.344L143.363 352.088C143.491 351.843 143.688 351.581 143.955 351.304C144.221 351.016 144.541 350.776 144.915 350.584C145.299 350.381 145.725 350.28 146.195 350.28C146.963 350.28 147.544 350.445 147.939 350.776C148.344 351.107 148.621 351.549 148.771 352.104C148.92 352.648 148.995 353.256 148.995 353.928V358.024C148.995 358.301 148.904 358.536 148.723 358.728C148.541 358.909 148.312 359 148.035 359C147.757 359 147.528 358.909 147.347 358.728C147.165 358.536 147.075 358.301 147.075 358.024V353.928C147.075 353.576 147.032 353.261 146.947 352.984C146.861 352.696 146.707 352.467 146.483 352.296C146.259 352.125 145.939 352.04 145.523 352.04C145.117 352.04 144.771 352.125 144.483 352.296C144.195 352.467 143.976 352.696 143.827 352.984C143.688 353.261 143.619 353.576 143.619 353.928V358.024C143.619 358.301 143.528 358.536 143.347 358.728C143.165 358.909 142.936 359 142.659 359C142.381 359 142.152 358.909 141.971 358.728C141.789 358.536 141.699 358.301 141.699 358.024V353.928C141.699 353.576 141.656 353.261 141.571 352.984C141.485 352.696 141.331 352.467 141.107 352.296C140.883 352.125 140.563 352.04 140.147 352.04C139.741 352.04 139.395 352.125 139.107 352.296C138.819 352.467 138.6 352.696 138.451 352.984C138.312 353.261 138.243 353.576 138.243 353.928V358.024C138.243 358.301 138.152 358.536 137.971 358.728C137.789 358.909 137.56 359 137.283 359C137.005 359 136.776 358.909 136.595 358.728C136.413 358.536 136.323 358.301 136.323 358.024V351.416C136.323 351.139 136.413 350.909 136.595 350.728C136.776 350.536 137.005 350.44 137.283 350.44C137.56 350.44 137.789 350.536 137.971 350.728C138.152 350.909 138.243 351.139 138.243 351.416V352.104L138.003 352.056C138.099 351.875 138.232 351.683 138.403 351.48C138.573 351.267 138.781 351.069 139.027 350.888C139.272 350.707 139.544 350.563 139.843 350.456C140.141 350.339 140.467 350.28 140.819 350.28ZM167.425 359.16C166.518 359.16 165.729 358.973 165.057 358.6C164.395 358.216 163.883 357.699 163.521 357.048C163.169 356.397 162.993 355.661 162.993 354.84C162.993 353.88 163.185 353.064 163.569 352.392C163.963 351.709 164.475 351.187 165.105 350.824C165.734 350.461 166.401 350.28 167.105 350.28C167.649 350.28 168.161 350.392 168.641 350.616C169.131 350.84 169.563 351.149 169.937 351.544C170.31 351.928 170.603 352.376 170.817 352.888C171.041 353.4 171.153 353.944 171.153 354.52C171.142 354.776 171.041 354.984 170.849 355.144C170.657 355.304 170.433 355.384 170.177 355.384H164.065L163.585 353.784H169.457L169.105 354.104V353.672C169.083 353.363 168.971 353.085 168.769 352.84C168.577 352.595 168.331 352.403 168.033 352.264C167.745 352.115 167.435 352.04 167.105 352.04C166.785 352.04 166.486 352.083 166.209 352.168C165.931 352.253 165.691 352.397 165.489 352.6C165.286 352.803 165.126 353.075 165.009 353.416C164.891 353.757 164.833 354.189 164.833 354.712C164.833 355.288 164.95 355.779 165.185 356.184C165.43 356.579 165.739 356.883 166.113 357.096C166.497 357.299 166.902 357.4 167.329 357.4C167.723 357.4 168.038 357.368 168.273 357.304C168.507 357.24 168.694 357.165 168.833 357.08C168.982 356.984 169.115 356.904 169.233 356.84C169.425 356.744 169.606 356.696 169.777 356.696C170.011 356.696 170.203 356.776 170.353 356.936C170.513 357.096 170.593 357.283 170.593 357.496C170.593 357.784 170.443 358.045 170.145 358.28C169.867 358.515 169.478 358.723 168.977 358.904C168.475 359.075 167.958 359.16 167.425 359.16ZM192.158 347.16C192.435 347.16 192.665 347.251 192.846 347.432C193.027 347.613 193.118 347.848 193.118 348.136V358.024C193.118 358.301 193.027 358.536 192.846 358.728C192.665 358.909 192.435 359 192.158 359C191.881 359 191.651 358.909 191.47 358.728C191.289 358.536 191.198 358.301 191.198 358.024V357.24L191.55 357.384C191.55 357.523 191.475 357.693 191.326 357.896C191.177 358.088 190.974 358.28 190.718 358.472C190.462 358.664 190.158 358.829 189.806 358.968C189.465 359.096 189.091 359.16 188.686 359.16C187.95 359.16 187.283 358.973 186.686 358.6C186.089 358.216 185.614 357.693 185.262 357.032C184.921 356.36 184.75 355.592 184.75 354.728C184.75 353.853 184.921 353.085 185.262 352.424C185.614 351.752 186.083 351.229 186.67 350.856C187.257 350.472 187.907 350.28 188.622 350.28C189.081 350.28 189.502 350.349 189.886 350.488C190.27 350.627 190.601 350.803 190.878 351.016C191.166 351.229 191.385 351.448 191.534 351.672C191.694 351.885 191.774 352.067 191.774 352.216L191.198 352.424V348.136C191.198 347.859 191.289 347.629 191.47 347.448C191.651 347.256 191.881 347.16 192.158 347.16ZM188.926 357.4C189.395 357.4 189.806 357.283 190.158 357.048C190.51 356.813 190.782 356.493 190.974 356.088C191.177 355.683 191.278 355.229 191.278 354.728C191.278 354.216 191.177 353.757 190.974 353.352C190.782 352.947 190.51 352.627 190.158 352.392C189.806 352.157 189.395 352.04 188.926 352.04C188.467 352.04 188.062 352.157 187.71 352.392C187.358 352.627 187.081 352.947 186.878 353.352C186.686 353.757 186.59 354.216 186.59 354.728C186.59 355.229 186.686 355.683 186.878 356.088C187.081 356.493 187.358 356.813 187.71 357.048C188.062 357.283 188.467 357.4 188.926 357.4ZM209.325 358.024C209.325 358.301 209.234 358.536 209.053 358.728C208.872 358.909 208.642 359 208.365 359C208.088 359 207.858 358.909 207.677 358.728C207.496 358.536 207.405 358.301 207.405 358.024V351.416C207.405 351.139 207.496 350.909 207.677 350.728C207.858 350.536 208.088 350.44 208.365 350.44C208.642 350.44 208.872 350.536 209.053 350.728C209.234 350.909 209.325 351.139 209.325 351.416V358.024ZM208.349 349.4C207.986 349.4 207.73 349.341 207.581 349.224C207.432 349.107 207.357 348.899 207.357 348.6V348.296C207.357 347.987 207.437 347.779 207.597 347.672C207.768 347.555 208.024 347.496 208.365 347.496C208.738 347.496 209 347.555 209.149 347.672C209.298 347.789 209.373 347.997 209.373 348.296V348.6C209.373 348.909 209.293 349.123 209.133 349.24C208.973 349.347 208.712 349.4 208.349 349.4ZM230.626 350.28C230.903 350.28 231.133 350.371 231.314 350.552C231.495 350.733 231.586 350.968 231.586 351.256V358.024C231.586 358.301 231.495 358.536 231.314 358.728C231.133 358.909 230.903 359 230.626 359C230.349 359 230.119 358.909 229.938 358.728C229.757 358.536 229.666 358.301 229.666 358.024V357.24L230.018 357.384C230.018 357.523 229.943 357.693 229.794 357.896C229.645 358.088 229.442 358.28 229.186 358.472C228.93 358.664 228.626 358.829 228.274 358.968C227.933 359.096 227.559 359.16 227.154 359.16C226.418 359.16 225.751 358.973 225.154 358.6C224.557 358.216 224.082 357.693 223.73 357.032C223.389 356.36 223.218 355.592 223.218 354.728C223.218 353.853 223.389 353.085 223.73 352.424C224.082 351.752 224.551 351.229 225.138 350.856C225.725 350.472 226.375 350.28 227.09 350.28C227.549 350.28 227.97 350.349 228.354 350.488C228.738 350.627 229.069 350.803 229.346 351.016C229.634 351.229 229.853 351.448 230.002 351.672C230.162 351.885 230.242 352.067 230.242 352.216L229.666 352.424V351.256C229.666 350.979 229.757 350.749 229.938 350.568C230.119 350.376 230.349 350.28 230.626 350.28ZM227.394 357.4C227.863 357.4 228.274 357.283 228.626 357.048C228.978 356.813 229.25 356.493 229.442 356.088C229.645 355.683 229.746 355.229 229.746 354.728C229.746 354.216 229.645 353.757 229.442 353.352C229.25 352.947 228.978 352.627 228.626 352.392C228.274 352.157 227.863 352.04 227.394 352.04C226.935 352.04 226.53 352.157 226.178 352.392C225.826 352.627 225.549 352.947 225.346 353.352C225.154 353.757 225.058 354.216 225.058 354.728C225.058 355.229 225.154 355.683 225.346 356.088C225.549 356.493 225.826 356.813 226.178 357.048C226.53 357.283 226.935 357.4 227.394 357.4ZM267.285 350.28C268.139 350.28 268.768 350.488 269.173 350.904C269.579 351.309 269.845 351.837 269.973 352.488L269.701 352.344L269.829 352.088C269.957 351.843 270.155 351.581 270.421 351.304C270.688 351.016 271.008 350.776 271.381 350.584C271.765 350.381 272.192 350.28 272.661 350.28C273.429 350.28 274.011 350.445 274.405 350.776C274.811 351.107 275.088 351.549 275.237 352.104C275.387 352.648 275.461 353.256 275.461 353.928V358.024C275.461 358.301 275.371 358.536 275.189 358.728C275.008 358.909 274.779 359 274.501 359C274.224 359 273.995 358.909 273.813 358.728C273.632 358.536 273.541 358.301 273.541 358.024V353.928C273.541 353.576 273.499 353.261 273.413 352.984C273.328 352.696 273.173 352.467 272.949 352.296C272.725 352.125 272.405 352.04 271.989 352.04C271.584 352.04 271.237 352.125 270.949 352.296C270.661 352.467 270.443 352.696 270.293 352.984C270.155 353.261 270.085 353.576 270.085 353.928V358.024C270.085 358.301 269.995 358.536 269.813 358.728C269.632 358.909 269.403 359 269.125 359C268.848 359 268.619 358.909 268.437 358.728C268.256 358.536 268.165 358.301 268.165 358.024V353.928C268.165 353.576 268.123 353.261 268.037 352.984C267.952 352.696 267.797 352.467 267.573 352.296C267.349 352.125 267.029 352.04 266.613 352.04C266.208 352.04 265.861 352.125 265.573 352.296C265.285 352.467 265.067 352.696 264.917 352.984C264.779 353.261 264.709 353.576 264.709 353.928V358.024C264.709 358.301 264.619 358.536 264.437 358.728C264.256 358.909 264.027 359 263.749 359C263.472 359 263.243 358.909 263.061 358.728C262.88 358.536 262.789 358.301 262.789 358.024V351.416C262.789 351.139 262.88 350.909 263.061 350.728C263.243 350.536 263.472 350.44 263.749 350.44C264.027 350.44 264.256 350.536 264.437 350.728C264.619 350.909 264.709 351.139 264.709 351.416V352.104L264.469 352.056C264.565 351.875 264.699 351.683 264.869 351.48C265.04 351.267 265.248 351.069 265.493 350.888C265.739 350.707 266.011 350.563 266.309 350.456C266.608 350.339 266.933 350.28 267.285 350.28ZM296.867 350.28C297.145 350.28 297.374 350.371 297.555 350.552C297.737 350.733 297.827 350.968 297.827 351.256V358.024C297.827 358.301 297.737 358.536 297.555 358.728C297.374 358.909 297.145 359 296.867 359C296.59 359 296.361 358.909 296.179 358.728C295.998 358.536 295.907 358.301 295.907 358.024V357.24L296.259 357.384C296.259 357.523 296.185 357.693 296.035 357.896C295.886 358.088 295.683 358.28 295.427 358.472C295.171 358.664 294.867 358.829 294.515 358.968C294.174 359.096 293.801 359.16 293.395 359.16C292.659 359.16 291.993 358.973 291.395 358.6C290.798 358.216 290.323 357.693 289.971 357.032C289.63 356.36 289.459 355.592 289.459 354.728C289.459 353.853 289.63 353.085 289.971 352.424C290.323 351.752 290.793 351.229 291.379 350.856C291.966 350.472 292.617 350.28 293.331 350.28C293.79 350.28 294.211 350.349 294.595 350.488C294.979 350.627 295.31 350.803 295.587 351.016C295.875 351.229 296.094 351.448 296.243 351.672C296.403 351.885 296.483 352.067 296.483 352.216L295.907 352.424V351.256C295.907 350.979 295.998 350.749 296.179 350.568C296.361 350.376 296.59 350.28 296.867 350.28ZM293.635 357.4C294.105 357.4 294.515 357.283 294.867 357.048C295.219 356.813 295.491 356.493 295.683 356.088C295.886 355.683 295.987 355.229 295.987 354.728C295.987 354.216 295.886 353.757 295.683 353.352C295.491 352.947 295.219 352.627 294.867 352.392C294.515 352.157 294.105 352.04 293.635 352.04C293.177 352.04 292.771 352.157 292.419 352.392C292.067 352.627 291.79 352.947 291.587 353.352C291.395 353.757 291.299 354.216 291.299 354.728C291.299 355.229 291.395 355.683 291.587 356.088C291.79 356.493 292.067 356.813 292.419 357.048C292.771 357.283 293.177 357.4 293.635 357.4ZM316.802 350.28C317.592 350.28 318.189 350.445 318.594 350.776C319.01 351.107 319.293 351.549 319.442 352.104C319.602 352.648 319.682 353.256 319.682 353.928V358.024C319.682 358.301 319.592 358.536 319.41 358.728C319.229 358.909 319 359 318.722 359C318.445 359 318.216 358.909 318.034 358.728C317.853 358.536 317.762 358.301 317.762 358.024V353.928C317.762 353.576 317.714 353.261 317.618 352.984C317.533 352.696 317.373 352.467 317.138 352.296C316.904 352.125 316.568 352.04 316.13 352.04C315.704 352.04 315.341 352.125 315.042 352.296C314.754 352.467 314.53 352.696 314.37 352.984C314.221 353.261 314.146 353.576 314.146 353.928V358.024C314.146 358.301 314.056 358.536 313.874 358.728C313.693 358.909 313.464 359 313.186 359C312.909 359 312.68 358.909 312.498 358.728C312.317 358.536 312.226 358.301 312.226 358.024V351.416C312.226 351.139 312.317 350.909 312.498 350.728C312.68 350.536 312.909 350.44 313.186 350.44C313.464 350.44 313.693 350.536 313.874 350.728C314.056 350.909 314.146 351.139 314.146 351.416V352.104L313.906 352.056C314.002 351.875 314.141 351.683 314.322 351.48C314.504 351.267 314.717 351.069 314.962 350.888C315.208 350.707 315.485 350.563 315.794 350.456C316.104 350.339 316.44 350.28 316.802 350.28ZM341.086 350.28C341.363 350.28 341.592 350.371 341.774 350.552C341.955 350.733 342.046 350.968 342.046 351.256V358.024C342.046 358.301 341.955 358.536 341.774 358.728C341.592 358.909 341.363 359 341.086 359C340.808 359 340.579 358.909 340.398 358.728C340.216 358.536 340.126 358.301 340.126 358.024V357.24L340.478 357.384C340.478 357.523 340.403 357.693 340.254 357.896C340.104 358.088 339.902 358.28 339.646 358.472C339.39 358.664 339.086 358.829 338.734 358.968C338.392 359.096 338.019 359.16 337.614 359.16C336.878 359.16 336.211 358.973 335.614 358.6C335.016 358.216 334.542 357.693 334.19 357.032C333.848 356.36 333.678 355.592 333.678 354.728C333.678 353.853 333.848 353.085 334.19 352.424C334.542 351.752 335.011 351.229 335.598 350.856C336.184 350.472 336.835 350.28 337.55 350.28C338.008 350.28 338.43 350.349 338.814 350.488C339.198 350.627 339.528 350.803 339.806 351.016C340.094 351.229 340.312 351.448 340.462 351.672C340.622 351.885 340.702 352.067 340.702 352.216L340.126 352.424V351.256C340.126 350.979 340.216 350.749 340.398 350.568C340.579 350.376 340.808 350.28 341.086 350.28ZM337.854 357.4C338.323 357.4 338.734 357.283 339.086 357.048C339.438 356.813 339.71 356.493 339.902 356.088C340.104 355.683 340.206 355.229 340.206 354.728C340.206 354.216 340.104 353.757 339.902 353.352C339.71 352.947 339.438 352.627 339.086 352.392C338.734 352.157 338.323 352.04 337.854 352.04C337.395 352.04 336.99 352.157 336.638 352.392C336.286 352.627 336.008 352.947 335.806 353.352C335.614 353.757 335.518 354.216 335.518 354.728C335.518 355.229 335.614 355.683 335.806 356.088C336.008 356.493 336.286 356.813 336.638 357.048C336.99 357.283 337.395 357.4 337.854 357.4ZM359.996 350.28C360.444 350.28 360.855 350.349 361.228 350.488C361.602 350.627 361.922 350.803 362.188 351.016C362.466 351.229 362.679 351.448 362.828 351.672C362.988 351.885 363.068 352.067 363.068 352.216L362.652 352.424V351.256C362.652 350.979 362.743 350.749 362.924 350.568C363.106 350.376 363.335 350.28 363.612 350.28C363.89 350.28 364.119 350.371 364.3 350.552C364.482 350.733 364.572 350.968 364.572 351.256V358.376C364.572 359.304 364.37 360.045 363.964 360.6C363.57 361.165 363.047 361.571 362.396 361.816C361.746 362.072 361.047 362.2 360.3 362.2C360.087 362.2 359.81 362.173 359.468 362.12C359.127 362.067 358.802 362.003 358.492 361.928C358.183 361.853 357.948 361.784 357.788 361.72C357.468 361.581 357.244 361.405 357.116 361.192C356.999 360.989 356.978 360.771 357.052 360.536C357.148 360.227 357.303 360.013 357.516 359.896C357.73 359.789 357.954 359.779 358.188 359.864C358.295 359.896 358.471 359.96 358.716 360.056C358.962 360.152 359.228 360.237 359.516 360.312C359.815 360.397 360.076 360.44 360.3 360.44C361.1 360.44 361.692 360.28 362.076 359.96C362.46 359.64 362.652 359.197 362.652 358.632V357.24L362.844 357.384C362.844 357.523 362.77 357.693 362.62 357.896C362.482 358.088 362.284 358.28 362.028 358.472C361.783 358.664 361.49 358.829 361.148 358.968C360.807 359.096 360.444 359.16 360.06 359.16C359.303 359.16 358.62 358.973 358.012 358.6C357.404 358.216 356.924 357.693 356.572 357.032C356.22 356.36 356.044 355.592 356.044 354.728C356.044 353.853 356.22 353.085 356.572 352.424C356.924 351.752 357.399 351.229 357.996 350.856C358.594 350.472 359.26 350.28 359.996 350.28ZM360.3 352.04C359.82 352.04 359.399 352.157 359.036 352.392C358.674 352.627 358.391 352.947 358.188 353.352C357.986 353.757 357.884 354.216 357.884 354.728C357.884 355.229 357.986 355.683 358.188 356.088C358.391 356.493 358.674 356.813 359.036 357.048C359.399 357.283 359.82 357.4 360.3 357.4C360.791 357.4 361.218 357.283 361.58 357.048C361.943 356.813 362.226 356.493 362.428 356.088C362.631 355.683 362.732 355.229 362.732 354.728C362.732 354.216 362.631 353.757 362.428 353.352C362.226 352.947 361.943 352.627 361.58 352.392C361.218 352.157 360.791 352.04 360.3 352.04ZM382.687 359.16C381.78 359.16 380.991 358.973 380.319 358.6C379.658 358.216 379.146 357.699 378.783 357.048C378.431 356.397 378.255 355.661 378.255 354.84C378.255 353.88 378.447 353.064 378.831 352.392C379.226 351.709 379.738 351.187 380.367 350.824C380.996 350.461 381.663 350.28 382.367 350.28C382.911 350.28 383.423 350.392 383.903 350.616C384.394 350.84 384.826 351.149 385.199 351.544C385.572 351.928 385.866 352.376 386.079 352.888C386.303 353.4 386.415 353.944 386.415 354.52C386.404 354.776 386.303 354.984 386.111 355.144C385.919 355.304 385.695 355.384 385.439 355.384H379.327L378.847 353.784H384.719L384.367 354.104V353.672C384.346 353.363 384.234 353.085 384.031 352.84C383.839 352.595 383.594 352.403 383.295 352.264C383.007 352.115 382.698 352.04 382.367 352.04C382.047 352.04 381.748 352.083 381.471 352.168C381.194 352.253 380.954 352.397 380.751 352.6C380.548 352.803 380.388 353.075 380.271 353.416C380.154 353.757 380.095 354.189 380.095 354.712C380.095 355.288 380.212 355.779 380.447 356.184C380.692 356.579 381.002 356.883 381.375 357.096C381.759 357.299 382.164 357.4 382.591 357.4C382.986 357.4 383.3 357.368 383.535 357.304C383.77 357.24 383.956 357.165 384.095 357.08C384.244 356.984 384.378 356.904 384.495 356.84C384.687 356.744 384.868 356.696 385.039 356.696C385.274 356.696 385.466 356.776 385.615 356.936C385.775 357.096 385.855 357.283 385.855 357.496C385.855 357.784 385.706 358.045 385.407 358.28C385.13 358.515 384.74 358.723 384.239 358.904C383.738 359.075 383.22 359.16 382.687 359.16ZM404.908 350.28C405.762 350.28 406.391 350.488 406.796 350.904C407.202 351.309 407.468 351.837 407.596 352.488L407.324 352.344L407.452 352.088C407.58 351.843 407.778 351.581 408.044 351.304C408.311 351.016 408.631 350.776 409.004 350.584C409.388 350.381 409.815 350.28 410.284 350.28C411.052 350.28 411.634 350.445 412.028 350.776C412.434 351.107 412.711 351.549 412.86 352.104C413.01 352.648 413.084 353.256 413.084 353.928V358.024C413.084 358.301 412.994 358.536 412.812 358.728C412.631 358.909 412.402 359 412.124 359C411.847 359 411.618 358.909 411.436 358.728C411.255 358.536 411.164 358.301 411.164 358.024V353.928C411.164 353.576 411.122 353.261 411.036 352.984C410.951 352.696 410.796 352.467 410.572 352.296C410.348 352.125 410.028 352.04 409.612 352.04C409.207 352.04 408.86 352.125 408.572 352.296C408.284 352.467 408.066 352.696 407.916 352.984C407.778 353.261 407.708 353.576 407.708 353.928V358.024C407.708 358.301 407.618 358.536 407.436 358.728C407.255 358.909 407.026 359 406.748 359C406.471 359 406.242 358.909 406.06 358.728C405.879 358.536 405.788 358.301 405.788 358.024V353.928C405.788 353.576 405.746 353.261 405.66 352.984C405.575 352.696 405.42 352.467 405.196 352.296C404.972 352.125 404.652 352.04 404.236 352.04C403.831 352.04 403.484 352.125 403.196 352.296C402.908 352.467 402.69 352.696 402.54 352.984C402.402 353.261 402.332 353.576 402.332 353.928V358.024C402.332 358.301 402.242 358.536 402.06 358.728C401.879 358.909 401.65 359 401.372 359C401.095 359 400.866 358.909 400.684 358.728C400.503 358.536 400.412 358.301 400.412 358.024V351.416C400.412 351.139 400.503 350.909 400.684 350.728C400.866 350.536 401.095 350.44 401.372 350.44C401.65 350.44 401.879 350.536 402.06 350.728C402.242 350.909 402.332 351.139 402.332 351.416V352.104L402.092 352.056C402.188 351.875 402.322 351.683 402.492 351.48C402.663 351.267 402.871 351.069 403.116 350.888C403.362 350.707 403.634 350.563 403.932 350.456C404.231 350.339 404.556 350.28 404.908 350.28ZM431.515 359.16C430.608 359.16 429.819 358.973 429.147 358.6C428.485 358.216 427.973 357.699 427.611 357.048C427.259 356.397 427.083 355.661 427.083 354.84C427.083 353.88 427.275 353.064 427.659 352.392C428.053 351.709 428.565 351.187 429.195 350.824C429.824 350.461 430.491 350.28 431.195 350.28C431.739 350.28 432.251 350.392 432.731 350.616C433.221 350.84 433.653 351.149 434.027 351.544C434.4 351.928 434.693 352.376 434.907 352.888C435.131 353.4 435.243 353.944 435.243 354.52C435.232 354.776 435.131 354.984 434.939 355.144C434.747 355.304 434.523 355.384 434.267 355.384H428.155L427.675 353.784H433.547L433.195 354.104V353.672C433.173 353.363 433.061 353.085 432.859 352.84C432.667 352.595 432.421 352.403 432.123 352.264C431.835 352.115 431.525 352.04 431.195 352.04C430.875 352.04 430.576 352.083 430.299 352.168C430.021 352.253 429.781 352.397 429.579 352.6C429.376 352.803 429.216 353.075 429.099 353.416C428.981 353.757 428.923 354.189 428.923 354.712C428.923 355.288 429.04 355.779 429.275 356.184C429.52 356.579 429.829 356.883 430.203 357.096C430.587 357.299 430.992 357.4 431.419 357.4C431.813 357.4 432.128 357.368 432.363 357.304C432.597 357.24 432.784 357.165 432.923 357.08C433.072 356.984 433.205 356.904 433.323 356.84C433.515 356.744 433.696 356.696 433.867 356.696C434.101 356.696 434.293 356.776 434.443 356.936C434.603 357.096 434.683 357.283 434.683 357.496C434.683 357.784 434.533 358.045 434.235 358.28C433.957 358.515 433.568 358.723 433.067 358.904C432.565 359.075 432.048 359.16 431.515 359.16ZM453.816 350.28C454.605 350.28 455.203 350.445 455.608 350.776C456.024 351.107 456.307 351.549 456.456 352.104C456.616 352.648 456.696 353.256 456.696 353.928V358.024C456.696 358.301 456.605 358.536 456.424 358.728C456.243 358.909 456.013 359 455.736 359C455.459 359 455.229 358.909 455.048 358.728C454.867 358.536 454.776 358.301 454.776 358.024V353.928C454.776 353.576 454.728 353.261 454.632 352.984C454.547 352.696 454.387 352.467 454.152 352.296C453.917 352.125 453.581 352.04 453.144 352.04C452.717 352.04 452.355 352.125 452.056 352.296C451.768 352.467 451.544 352.696 451.384 352.984C451.235 353.261 451.16 353.576 451.16 353.928V358.024C451.16 358.301 451.069 358.536 450.888 358.728C450.707 358.909 450.477 359 450.2 359C449.923 359 449.693 358.909 449.512 358.728C449.331 358.536 449.24 358.301 449.24 358.024V351.416C449.24 351.139 449.331 350.909 449.512 350.728C449.693 350.536 449.923 350.44 450.2 350.44C450.477 350.44 450.707 350.536 450.888 350.728C451.069 350.909 451.16 351.139 451.16 351.416V352.104L450.92 352.056C451.016 351.875 451.155 351.683 451.336 351.48C451.517 351.267 451.731 351.069 451.976 350.888C452.221 350.707 452.499 350.563 452.808 350.456C453.117 350.339 453.453 350.28 453.816 350.28ZM471.187 350.6H474.979C475.235 350.6 475.449 350.685 475.619 350.856C475.79 351.027 475.875 351.24 475.875 351.496C475.875 351.741 475.79 351.949 475.619 352.12C475.449 352.28 475.235 352.36 474.979 352.36H471.187C470.931 352.36 470.718 352.275 470.547 352.104C470.377 351.933 470.291 351.72 470.291 351.464C470.291 351.219 470.377 351.016 470.547 350.856C470.718 350.685 470.931 350.6 471.187 350.6ZM472.899 348.6C473.177 348.6 473.401 348.696 473.571 348.888C473.753 349.069 473.843 349.299 473.843 349.576V356.696C473.843 356.845 473.87 356.968 473.923 357.064C473.987 357.16 474.067 357.229 474.163 357.272C474.27 357.315 474.382 357.336 474.499 357.336C474.627 357.336 474.745 357.315 474.851 357.272C474.958 357.219 475.081 357.192 475.219 357.192C475.369 357.192 475.502 357.261 475.619 357.4C475.747 357.539 475.811 357.731 475.811 357.976C475.811 358.275 475.646 358.52 475.315 358.712C474.995 358.904 474.649 359 474.275 359C474.051 359 473.801 358.984 473.523 358.952C473.257 358.909 473.001 358.819 472.755 358.68C472.521 358.531 472.323 358.307 472.163 358.008C472.003 357.709 471.923 357.299 471.923 356.776V349.576C471.923 349.299 472.014 349.069 472.195 348.888C472.387 348.696 472.622 348.6 472.899 348.6Z" fill="#219F2E"/>
</svg>
